<svg width="271" height="132" viewBox="0 0 271 132" fill="none" xmlns="http://www.w3.org/2000/svg">
<path d="M10.2413 54V50.9462C10.2413 49.5952 9.14608 48.5 7.79506 48.5C6.44405 48.5 5.34884 47.4048 5.34884 46.0538V45.75C5.34884 44.2312 4.11762 43 2.59884 43H1" stroke="#AAEB7F" stroke-width="2" stroke-linecap="round"/>
<path d="M116.873 9.55411L117.221 7.63426C117.38 6.75871 116.797 5.92686 115.92 5.77626C115.043 5.62567 114.461 4.79382 114.619 3.91827L114.65 3.75101C114.825 2.78308 114.181 1.86346 113.212 1.69698L112.144 1.51367" stroke="#B37AFE" stroke-width="2" stroke-linecap="round"/>
<path d="M268.846 93.6791L269.135 92.0843C269.267 91.357 268.783 90.666 268.054 90.5409C267.326 90.4158 266.842 89.7248 266.974 88.9975L266.999 88.8585C267.145 88.0545 266.61 87.2906 265.804 87.1523L264.918 87" stroke="#EF7592" stroke-width="2" stroke-linecap="round"/>
<path d="M184.799 131V127.946C184.799 126.595 185.894 125.5 187.245 125.5C188.596 125.5 189.691 124.405 189.691 123.054V122.75C189.691 121.231 190.923 120 192.441 120H194.04" stroke="#06E5FF" stroke-width="2" stroke-linecap="round"/>
<path d="M191.813 30.8278L190.725 28.9933C190.24 28.1741 190.519 27.1317 191.349 26.665C192.179 26.1983 192.458 25.1559 191.973 24.3368L191.869 24.1612C191.325 23.245 191.638 22.0792 192.566 21.5572L193.557 21" stroke="#AAEB7F" stroke-width="2" stroke-linecap="round"/>
<path fill-rule="evenodd" clip-rule="evenodd" d="M57.988 35.7771C58.8386 35.7771 59.5282 35.1055 59.5282 34.2771C59.5282 33.4487 58.8386 32.7771 57.988 32.7771C57.1373 32.7771 56.4478 33.4487 56.4478 34.2771C56.4478 35.1055 57.1373 35.7771 57.988 35.7771Z" fill="#FE887A"/>
<path fill-rule="evenodd" clip-rule="evenodd" d="M15.3754 100C16.5096 100 17.429 99.1046 17.429 98C17.429 96.8954 16.5096 96 15.3754 96C14.2412 96 13.3218 96.8954 13.3218 98C13.3218 99.1046 14.2412 100 15.3754 100Z" fill="#06E5FF"/>
<path fill-rule="evenodd" clip-rule="evenodd" d="M258.216 41C259.634 41 260.783 39.8807 260.783 38.5C260.783 37.1193 259.634 36 258.216 36C256.798 36 255.649 37.1193 255.649 38.5C255.649 39.8807 256.798 41 258.216 41Z" fill="#FE887A"/>
</svg>
