<?xml version='1.0' encoding='utf-8'?>
<!DOCTYPE svg PUBLIC '-//W3C//DTD SVG 1.1//EN' 'http://www.w3.org/Graphics/SVG/1.1/DTD/svg11.dtd'>
<svg version="1.1" xmlns="http://www.w3.org/2000/svg" viewBox="0 0 512 512" xmlns:xlink="http://www.w3.org/1999/xlink" enable-background="new 0 0 512 512">
  <g>
    <path fill="white" d="m445.5,137.9v-33.2c0-51.6-42-93.6-93.6-93.6h-191.8c-51.6,0-93.6,42-93.6,93.6v33.2c-30.9,1.7-55.5,27.4-55.5,58.7v245.5c0,32.4 26.4,58.8 58.8,58.8h372.3c32.4,0 58.8-26.4 58.8-58.8v-245.5c0.1-31.3-24.5-57-55.4-58.7zm-172.1,160.2c-3.6-5.2-10-8.6-17.4-8.6-8.3,0-15.4,4.4-18.6,10.6l-146.6-121.5h334.3 0.6l-152.3,119.5zm-166.1-193.5c-1.42109e-14-29.1 23.7-52.8 52.8-52.8h191.7c29.1,0 52.8,23.7 52.8,52.8v33.1h-297.3v-33.1zm334.9,355.6h-372.4c-9.9-5.68434e-14-18-8.1-18-18v-242.8l183.8,152.3c0.6,9.5 9.5,17 20.4,17 11.3,0 20.4-8.1 20.4-18v-3l183.8-144.1v238.7c0,9.8-8.1,17.9-18,17.9z"/>
  </g>
</svg>
