<?xml version="1.0" encoding="utf-8"?>
<!-- Svg Vector Icons : http://www.onlinewebfonts.com/icon -->
<!DOCTYPE svg PUBLIC "-//W3C//DTD SVG 1.1//EN" "http://www.w3.org/Graphics/SVG/1.1/DTD/svg11.dtd">
<svg version="1.1" xmlns="http://www.w3.org/2000/svg" xmlns:xlink="http://www.w3.org/1999/xlink" x="0px" y="0px" viewBox="0 0 1000 1000" enable-background="new 0 0 1000 1000" xml:space="preserve">
<metadata> Svg Vector Icons : http://www.onlinewebfonts.com/icon </metadata>
<g><g transform="translate(0.000000,511.000000) scale(0.100000,-0.100000)"><path d="M4536.4,4998.3C2823.6,4820.8,1350.1,3803.4,605.1,2286.6c-241.5-491.2-383.8-947.2-466.4-1485.9c-51.6-342.6-51.6-1036,0-1382.7c243.5-1620,1242.4-2996.5,2684.9-3704.3c493.2-241.5,949.3-383.8,1485.9-466.4c346.7-51.6,1040.1-51.6,1382.7,0c1042.2,158.9,1958.5,606.7,2711.7,1324.9c639.7,608.8,1135,1459,1353.8,2329.9C9869.1-650.1,9900-392.1,9900,109.4c0,501.5-30.9,765.6-142.4,1207.3C9408.8,2701.4,8457.5,3877.7,7178,4505c-485,237.3-957.6,385.9-1475.5,464.3C5438.3,5008.6,4790.3,5025.1,4536.4,4998.3z M5436.2,4566.9C7735.2,4335.8,9479,2414.5,9479,109.4c0-1867.7-1166-3547.5-2916-4197.6c-2313.4-862.6-4893,317.8-5759.8,2635.4C256.3,6.2,520.5,1669.5,1490.4,2895.3c150.7,187.8,497.4,538.6,691.3,695.5C3091.9,4327.5,4276.4,4682.5,5436.2,4566.9z"/><path d="M2772,1727.3c-227-59.8-452-270.3-530.4-493.2c-33-92.9-37.1-204.3-37.1-1124.7V-912.2L2254-1036c68.1-169.2,255.9-357,425.1-425.1l123.8-49.5h1589H5981l123.8,49.5c171.3,68.1,357,255.9,423.1,425.1c39.2,101.1,49.5,175.4,57.8,396.2l8.3,272.4l328.1-293c445.8-398.3,470.5-412.7,701.7-423.1l183.7-8.3V119.7v1211.4l-183.7-8.3c-231.1-10.3-255.9-24.8-701.7-423.1l-328.1-293l-8.3,272.4c-8.3,220.8-18.6,295.1-57.8,396.2c-66,169.2-251.8,357-423.1,425.1L5981,1750l-1547.8,4.1C3129,1758.2,2866.9,1754.1,2772,1727.3z"/></g></g>
</svg>