<?xml version="1.0" encoding="iso-8859-1"?>
<!-- Generator: Adobe Illustrator 19.0.0, SVG Export Plug-In . SVG Version: 6.00 Build 0)  -->
<svg version="1.1" id="Layer_1" xmlns="http://www.w3.org/2000/svg" xmlns:xlink="http://www.w3.org/1999/xlink" x="0px" y="0px"
	 viewBox="0 0 512 512" style="enable-background:new 0 0 512 512;" xml:space="preserve">
<path style="fill:#E1E3E6;" d="M442.879,325.778c3.298,97.524-89.057,175.55-186.879,175.514
	c-97.822,0.037-190.177-77.991-186.879-175.514c0.2-48.649,58.399-127.918,104.417-194.489C221.442,64.634,257.168,10.675,256,10.71
	c-1.168-0.033,34.558,53.924,82.462,120.58C384.481,197.86,442.679,277.13,442.879,325.778z"/>
<path style="fill: white;" d="M235.174,499.169c65.086,12.728,229.971-90.253,28.638-291.586c0,0,3.472,96.025-38.184,159.678
	c0,0-3.472-34.134-41.655-75.211C183.974,292.05,83.575,469.523,235.174,499.169z"/>

<g>
</g>
<g>
</g>
<g>
</g>
<g>
</g>
<g>
</g>
<g>
</g>
<g>
</g>
<g>
</g>
<g>
</g>
<g>
</g>
<g>
</g>
<g>
</g>
<g>
</g>
<g>
</g>
<g>
</g>
</svg>
