<?xml version="1.0" encoding="utf-8"?>
<!-- Generator: Adobe Illustrator 22.1.0, SVG Export Plug-In . SVG Version: 6.00 Build 0)  -->
<svg version="1.1" id="圖層_1" xmlns="http://www.w3.org/2000/svg" xmlns:xlink="http://www.w3.org/1999/xlink" x="0px" y="0px"
	 viewBox="0 0 283.5 283.5" style="enable-background:new 0 0 283.5 283.5;" xml:space="preserve">
<style type="text/css">
	.st0{fill:#33CCFF;}
</style>
<title>資產 9</title>
<g>
	<polygon class="st0" points="203,179.6 203,191.6 253.1,191.6 253.1,141.5 241.1,141.5 241.1,179.6 	"/>
	<polygon class="st0" points="79.3,180.1 41.2,180.1 41.2,142 29.2,142 29.2,192.1 79.3,192.1 	"/>
	<polygon class="st0" points="41.2,34.7 79.3,34.7 79.3,22.7 29.2,22.7 29.2,72.8 41.2,72.8 	"/>
	<path class="st0" d="M215.7,226.7c-11.5-4-28.9-14.9-40.3-22.4l-1.4-24.4c8.1-6.7,14.8-13.7,16.6-17.1c1.8-3.5,3.5-12.9,4.8-23.4
		c1.4,0.9,3,1.4,4.6,1.5c6.6,0,12-8.6,12-19.1c0-6.1-1.9-11.5-4.7-15c0.8-5.3,1.1-10.7,1-16h55.8V10.1h-80.7V37
		c-9.9-7.9-24.2-14.2-44.8-17c-42.4-5.8-51.2,33.9-51.2,33.9c0.1,1.3,0.4,2.6,0.7,3.8c-4.1,2.9-7.6,6.6-10.1,11
		c-3.2,13.9-3.4,28.2-0.8,42.2c-1.5,3.5-2.2,7.2-2.2,10.9c0,10.5,5.4,19.1,12,19.1c0.7,0,1.5-0.1,2.2-0.4c1.2,1.7,1.9,2.6,1.9,2.6
		l0.8-0.9c1.2,9.3,2.7,17.3,4.4,20.6c1.9,3.6,8.8,10.9,17.1,17.9l-1.4,23.7c-11.4,7.5-28.8,18.4-40.3,22.4
		c-18.3,6.4-53.2,19.1-53.2,38.9h250C268.9,245.8,233.9,233.1,215.7,226.7z M230.6,48.2l2.9,1.9c-2.7,4.1-6.3,6.1-10.8,6.1
		c-3.9,0-5.8-3.4-5.9-3.5l1.5-0.9l1.5-0.9c0,0.1,1,1.7,2.9,1.7C226.1,52.7,228.6,51.3,230.6,48.2z M228.5,40.2V36
		c0-1,0.8-1.8,1.8-1.8s1.8,0.8,1.8,1.8v4.2c0,1-0.8,1.8-1.8,1.8S228.5,41.2,228.5,40.2z M216.6,36c0-1,0.8-1.8,1.8-1.8
		s1.8,0.8,1.8,1.8v4.2c0,1-0.8,1.8-1.8,1.8s-1.8-0.8-1.8-1.8V36z M256.1,78.4c-3.3-2-7.5-3.5-10.3-4.5c-3.4-1.2-8.5-4.4-11.8-6.6
		l-0.4-7.1c2.4-2,4.3-4,4.9-5s1-3.8,1.4-6.8c0.4,0.3,0.9,0.4,1.4,0.4c1.9,0,3.5-2.5,3.5-5.6c0-1.8-0.5-3.4-1.4-4.4
		c0.5-3.7,0.4-7.5-0.4-11.2c-0.4-0.7-0.9-1.3-1.4-1.9c-0.9-2.7-2.5-5.5-5.5-7.7h20.1v60.4C256.2,78.4,256.1,78.4,256.1,78.4z
		 M210.9,18.1c-2,2.6-2.5,5.2-2.5,5.2c0,0.4,0.1,0.8,0.2,1.1c-1.2,0.8-2.2,1.9-3,3.2c-0.9,4.1-1,8.3-0.2,12.4
		c-0.4,1-0.6,2.1-0.6,3.2c0,3.1,1.6,5.6,3.5,5.6c0.2,0,0.4,0,0.6-0.1c0.3,0.5,0.6,0.8,0.6,0.8l0.2-0.3c0.4,2.7,0.8,5.1,1.3,6
		c0.6,1.1,2.6,3.2,5,5.2l-0.4,6.9c-3.3,2.2-8.4,5.4-11.8,6.6c-3.4,1.2-8.8,3.1-12.3,5.9V18.1H210.9z"/>
</g>
</svg>
