<?xml version="1.0" encoding="utf-8"?>
<!-- Generator: Adobe Illustrator 24.1.2, SVG Export Plug-In . SVG Version: 6.00 Build 0)  -->
<svg version="1.1" xmlns="http://www.w3.org/2000/svg" xmlns:xlink="http://www.w3.org/1999/xlink" x="0px" y="0px"
	 viewBox="0 0 283.5 283.5" style="enable-background:new 0 0 283.5 283.5;" xml:space="preserve">
<style type="text/css">
	.st0{fill:#33CCFF;}
</style>
<g id="圖層_1">
	<g>
		<polygon class="st0" points="203,179.6 203,191.6 253.1,191.6 253.1,141.5 241.1,141.5 241.1,179.6 		"/>
		<polygon class="st0" points="241.1,34.7 241.1,72.8 253.1,72.8 253.1,22.7 203,22.7 203,34.7 		"/>
		<polygon class="st0" points="79.3,180.1 41.2,180.1 41.2,142 29.2,142 29.2,192.1 79.3,192.1 		"/>
		<polygon class="st0" points="41.2,34.7 79.3,34.7 79.3,22.7 29.2,22.7 29.2,72.8 41.2,72.8 		"/>
	</g>
</g>
<g id="圖層_3">
	<g>
		<path class="st0" d="M97.7,117.6c17.8-12.6,34.2-13.6,34.2-13.6l8.1-0.5v-0.1l1,0.1l1-0.1v0.1l8.1,0.5c0,0,16.4,1,34.2,13.6
			l21.7-13.4c1.2-11.3,0.5-22.8-2-33.9c-1.3-2.3-2.9-4.4-4.7-6.3c-5.9-18.4-22.2-36.8-62.3-42.4c-42.4-5.8-51.2,33.9-51.2,33.9
			c0.1,1.3,0.4,2.6,0.7,3.8c-4.1,2.9-7.6,6.6-10.1,10.9C73.8,81,73.1,92.1,74.2,103L97.7,117.6z"/>
		<path class="st0" d="M213.8,228.3c-11.5-4-28.9-14.9-40.3-22.4l-1.4-24.4c6.8-5.6,12.6-11.4,15.4-15.2l-10.6-8.5
			c-8.5,13.6-19.5,17.9-19.5,17.9H142h-2h-15.3c0,0-11-4.3-19.5-17.9l-9.8,7.7c2.6,3.9,8.9,10.4,16.3,16.6l-1.4,23.6
			c-11.4,7.5-28.8,18.4-40.3,22.4c-18,6.4-53,19.1-53,39h250C267,247.4,232.1,234.7,213.8,228.3z"/>
		<path class="st0" d="M198.1,142.5c6.6,0,12-8.6,12-19.1c0-5.6-1.6-10.5-4-14l-19.5,11.3c-0.2,14.2-3.3,25-7.5,33l10.6,8
			c1.4-4.5,2.7-12.2,3.8-20.7C194.9,141.9,196.5,142.4,198.1,142.5z"/>
		<path class="st0" d="M95.4,120.7l-20.5-11.9c0.2,1.2,0.4,2.4,0.6,3.6c-1.5,3.5-2.2,7.2-2.2,10.9c0,10.5,5.6,19.4,12.2,19.3
			c2.8,0,4.5-1.4,4.5-1.4l0.3,2.5c0.9,6.8,1.9,13,3.1,17.1l9.5-7.1C98.7,145.6,95.5,134.9,95.4,120.7z"/>
	</g>
	<path class="st0" d="M159.3,139.1c0,0-3.9,5-17.6,5c-13.6,0-17.6-5-17.6-5l-2.6,1.8c0,0,5.9,6.3,20,6.3s20.4-6.3,20.4-6.3
		L159.3,139.1z"/>
	<path class="st0" d="M159.3,151.6c0,0-3.9,5-17.6,5c-13.6,0-17.6-5-17.6-5l-2.6,1.8c0,0,5.9,6.3,20,6.3s20.4-6.3,20.4-6.3
		L159.3,151.6z"/>
</g>
</svg>
