<?xml version="1.0" encoding="utf-8"?>
<!-- Generator: Adobe Illustrator 24.0.0, SVG Export Plug-In . SVG Version: 6.00 Build 0)  -->
<svg version="1.1" id="圖層_3" xmlns="http://www.w3.org/2000/svg" xmlns:xlink="http://www.w3.org/1999/xlink" x="0px" y="0px"
	 viewBox="0 0 283.5 283.5" style="enable-background:new 0 0 283.5 283.5;" xml:space="preserve">
<style type="text/css">
	.st0{fill:#33CCFF;}
	.st1{fill:none;stroke:#33CCFF;stroke-width:3;stroke-miterlimit:10;}
</style>
<path class="st0" d="M143.5,20.9c-1.7-0.3-3.3-0.6-5.1-0.8C96,14.3,87.2,54,87.2,54c0.1,1.3,0.4,2.6,0.7,3.8
	c-4.1,2.9-7.6,6.6-10.1,10.9c-3.2,13.9-3.4,28.2-0.8,42.2c-1.5,3.5-2.2,7.2-2.2,10.9c0,10.5,5.4,19.1,12,19.1c0.7,0,1.5-0.1,2.2-0.4
	c1.2,1.7,1.9,2.6,1.9,2.6l0.8-0.9c1.2,9.3,2.7,17.4,4.4,20.6c1.9,3.6,8.8,10.9,17.1,17.9l-1.4,23.6c-11.4,7.5-28.8,18.4-40.3,22.4
	c-18,6.4-53,19.1-53,39h125V20.9z"/>
<g>
	<g>
		<path class="st0" d="M144.8,24.5c27.6,5.6,44.9,18.7,51.4,38.9l0.2,0.7l0.5,0.5c1.6,1.7,3,3.5,4,5.3c2.7,12.3,3.2,24.6,1.4,36.6
			l-0.2,1.3l0.8,1c2.5,3.2,4,8.1,4,13.1c0,9.4-4.7,16-8.9,16.1c-1.1-0.1-2.2-0.4-3.1-1l-4-2.6l-0.6,4.7c-1.4,11.3-3.1,19.6-4.5,22.4
			c-1.4,2.6-7.2,9-15.8,16.2l-1.2,1l0.1,1.5l1.4,24.4l0.1,1.5l1.3,0.8c18.1,11.9,31.9,19.6,41,22.7c14.5,5.1,47.2,16.5,50.9,33.1
			H144.8V24.5 M141.7,20.9v244.8h125c0-19.8-34.9-32.5-53.2-38.9c-11.5-4-28.9-14.9-40.3-22.4l-1.4-24.4
			c8.1-6.7,14.8-13.6,16.6-17.1c1.8-3.5,3.5-12.9,4.8-23.4c1.4,0.9,3,1.4,4.6,1.5c6.6,0,12-8.6,12-19.1c0-6.1-1.9-11.5-4.7-15
			c1.9-12.7,1.3-25.6-1.5-38.1c-1.3-2.3-2.9-4.4-4.7-6.3C193.3,44.9,178.1,27.3,141.7,20.9L141.7,20.9z"/>
	</g>
	<line class="st1" x1="150.7" y1="23.6" x2="143.5" y2="30.8"/>
	<line class="st1" x1="161.3" y1="28.8" x2="143.6" y2="46.4"/>
	<line class="st1" x1="171.9" y1="33.9" x2="143.8" y2="62"/>
	<line class="st1" x1="181.9" y1="39.7" x2="142.9" y2="78.6"/>
	<line class="st1" x1="189.7" y1="47.6" x2="143.5" y2="93.8"/>
	<line class="st1" x1="195.6" y1="57.4" x2="143.2" y2="109.8"/>
	<line class="st1" x1="201.4" y1="67.4" x2="142.9" y2="125.9"/>
	<line class="st1" x1="204.3" y1="80.3" x2="143.1" y2="141.4"/>
	<line class="st1" x1="204.3" y1="96" x2="143.7" y2="156.6"/>
	<line class="st1" x1="205.8" y1="110.2" x2="143.4" y2="172.7"/>
	<line class="st1" x1="191.3" y1="140.5" x2="143.2" y2="188.6"/>
	<line class="st1" x1="208.8" y1="123" x2="194" y2="137.8"/>
	<line class="st1" x1="171.3" y1="176.2" x2="143.3" y2="204.3"/>
	<line class="st1" x1="170.6" y1="192.7" x2="142.8" y2="220.5"/>
	<line class="st1" x1="173" y1="206" x2="143.3" y2="235.7"/>
	<line class="st1" x1="182.1" y1="212.7" x2="143" y2="251.8"/>
	<line class="st1" x1="192.1" y1="218.4" x2="146.6" y2="264"/>
	<line class="st1" x1="203.2" y1="223.1" x2="162.2" y2="264.1"/>
	<line class="st1" x1="213.4" y1="228.7" x2="178.1" y2="264"/>
	<line class="st1" x1="225.3" y1="232.5" x2="193.4" y2="264.4"/>
	<line class="st1" x1="235.7" y1="237.9" x2="209.4" y2="264.2"/>
	<line class="st1" x1="246.9" y1="242.4" x2="225.1" y2="264.2"/>
	<line class="st1" x1="255.4" y1="249.7" x2="241.1" y2="264"/>
	<line class="st1" x1="262.6" y1="258.2" x2="256.8" y2="264"/>
</g>
</svg>
