<?xml version="1.0" encoding="utf-8"?>
<!-- Svg Vector Icons : http://www.onlinewebfonts.com/icon -->
<!DOCTYPE svg PUBLIC "-//W3C//DTD SVG 1.1//EN" "http://www.w3.org/Graphics/SVG/1.1/DTD/svg11.dtd">
<svg version="1.1" xmlns="http://www.w3.org/2000/svg" xmlns:xlink="http://www.w3.org/1999/xlink" x="0px" y="0px" viewBox="0 0 1000 1000" enable-background="new 0 0 1000 1000" xml:space="preserve">
<metadata> Svg Vector Icons : http://www.onlinewebfonts.com/icon </metadata>
<g><path d="M957.7,649.4L809.2,546.4H701l171.1,126L701,670.1c-4.9,0-12.1,4.8-14.4,8.8l-47.5,114.9H360.9l-47.5-114.9c-2.3-4-9.4-8.8-14.3-8.8H129L299,546.4H190.8L42.4,649.4c-23.2,13.9-37.1,45.9-30.9,71.1l27.5,151c6.2,25.2,33.8,45.9,61.3,45.9h799.4c27.5,0,55.1-20.6,61.3-45.9l27.5-151C994.8,695.4,980.9,663.3,957.7,649.4z M752.4,339.6c1.6-1.5,2.3-3.9,1.4-6.1c-0.9-2.2-3-3.6-5.2-3.6H592.8l0.3-230.6c0-4.3-1.6-8.6-4.9-11.9c-3.3-3.3-7.6-4.9-11.9-4.9H423.7c-4.3,0-8.6,1.6-11.9,4.9c-3.3,3.3-4.9,7.6-4.9,11.9l0.3,230.6H251.4c-2.2,0-4.3,1.3-5.2,3.6c-0.9,2.2-0.2,4.6,1.4,6.1l241,223.4c3,2.8,7,4.5,11.4,4.5s8.4-1.7,11.4-4.5L752.4,339.6z"/></g>
</svg>