<?xml version="1.0" encoding="utf-8"?>
<!-- Svg Vector Icons : http://www.onlinewebfonts.com/icon -->
<!DOCTYPE svg PUBLIC "-//W3C//DTD SVG 1.1//EN" "http://www.w3.org/Graphics/SVG/1.1/DTD/svg11.dtd">
<svg version="1.1" xmlns="http://www.w3.org/2000/svg" xmlns:xlink="http://www.w3.org/1999/xlink" x="0px" y="0px" viewBox="0 0 1000 1000" enable-background="new 0 0 1000 1000" xml:space="preserve">
<metadata> Svg Vector Icons : http://www.onlinewebfonts.com/icon </metadata>
<g><path d="M500,180.4c-94.5,0-170.9,76.4-170.9,170.6c0,94,76.4,170.4,170.9,170.4c94.5,0,170.9-76.4,170.9-170.4C670.9,256.8,594.5,180.4,500,180.4z M500,244.5c59.1,0,106.8,47.5,106.8,106.5c0,58.8-47.7,106.3-106.8,106.3c-59.1,0-106.8-47.5-106.8-106.3C393.2,291.9,440.9,244.5,500,244.5z M500,73.8c165.1,0,277.7,112.3,277.7,277.2c0,164.6-277.7,468.6-277.7,468.6S222.3,515.6,222.3,351C222.3,186.1,334.9,73.8,500,73.8z M500,904.8c0,0,341.8-365.6,341.8-553.8c0-188.5-153-341-341.8-341c-188.7,0-341.7,152.5-341.7,341C158.3,539.2,500,904.8,500,904.8z M72.8,862.1c0,70.6,203,127.9,427.2,127.9c224.1,0,427.2-57.3,427.2-127.9c0-57-55-105.6-219.4-121.9c-17.3,21.6-33.9,41.7-49,59.6c153.6,6.3,204.3,31.9,204.3,62.3c0,35.4-172.1,68.1-363.1,68.1c-192.2,0-363.1-32.6-363.1-68.1c0-30.4,50.7-56,204.3-62.3c-15.1-17.8-31.7-37.9-49-59.6C127.9,756.5,72.8,805.1,72.8,862.1z"/></g>
</svg>