<?xml version="1.0" ?><svg width="32px" height="32px" viewBox="0 0 32 32" data-name="Layer 1" id="Layer_1" xmlns="http://www.w3.org/2000/svg"><title/><path d="M23.93,2H8.07a2.8,2.8,0,0,0-2.8,2.8V27.2A2.8,2.8,0,0,0,8.07,30H23.93a2.8,2.8,0,0,0,2.8-2.8V4.8A2.8,2.8,0,0,0,23.93,2Zm.94,25.2a.94.94,0,0,1-.94.93H8.07a.94.94,0,0,1-.94-.93V4.8a.94.94,0,0,1,.94-.93H23.93a.94.94,0,0,1,.94.93Z"/><path d="M21.83,10.4H10.17a.94.94,0,1,0,0,1.87H21.83a.94.94,0,1,0,0-1.87Z"/><path d="M21.83,15.07H10.17a.93.93,0,1,0,0,1.86H21.83a.93.93,0,1,0,0-1.86Z"/><path d="M21.83,19.73H10.17a.94.94,0,1,0,0,1.87H21.83a.94.94,0,1,0,0-1.87Z"/></svg>