<?xml version="1.0" encoding="iso-8859-1"?>
<!-- Generator: Adobe Illustrator 16.0.0, SVG Export Plug-In . SVG Version: 6.00 Build 0)  -->
<!DOCTYPE svg PUBLIC "-//W3C//DTD SVG 1.1//EN" "http://www.w3.org/Graphics/SVG/1.1/DTD/svg11.dtd">
<svg version="1.1" id="Capa_1" xmlns="http://www.w3.org/2000/svg" xmlns:xlink="http://www.w3.org/1999/xlink" x="0px" y="0px"
	 width="554.625px" height="554.625px" viewBox="0 0 554.625 554.625" style="enable-background:new 0 0 554.625 554.625;"
	 xml:space="preserve">
<g>
	<g>
		<path d="M459,57.375c0-21.038-17.213-38.25-38.25-38.25H133.875c-21.038,0-38.25,17.212-38.25,38.25v114.75H459V57.375z"/>
		<path d="M497.25,191.25H57.375C24.862,191.25,0,216.112,0,248.625V420.75c0,32.513,24.862,57.375,57.375,57.375H76.5v-153h401.625
			v153h19.125c32.513,0,57.375-24.862,57.375-57.375V248.625C554.625,216.112,529.763,191.25,497.25,191.25z M439.875,286.875
			c-11.475,0-19.125-7.65-19.125-19.125c0-11.475,7.65-19.125,19.125-19.125S459,256.275,459,267.75
			C459,279.225,451.35,286.875,439.875,286.875z"/>
		<path d="M95.625,497.25c0,21.037,17.212,38.25,38.25,38.25H420.75c21.037,0,38.25-17.213,38.25-38.25v-153H95.625V497.25z
			 M133.875,401.625H420.75v19.125H133.875V401.625z M133.875,459H420.75v19.125H133.875V459z"/>
	</g>
</g>
<g>
</g>
<g>
</g>
<g>
</g>
<g>
</g>
<g>
</g>
<g>
</g>
<g>
</g>
<g>
</g>
<g>
</g>
<g>
</g>
<g>
</g>
<g>
</g>
<g>
</g>
<g>
</g>
<g>
</g>
</svg>
