<svg width="24px" height="24px" viewBox="0 0 24 24" xmlns="http://www.w3.org/2000/svg">
  <path fill-rule="evenodd" d="M2.00611627,7.11043153 L2.57852101,12.2620742 C2.88235858,14.9966124 4.42033027,17.4419541 6.75348416,18.9001752 L11.4700011,21.8479983 C11.7942713,22.0506672 12.2057287,22.0506672 12.5299989,21.8479983 L17.2465158,18.9001752 C19.5796697,17.4419541 21.1176414,14.9966124 21.421479,12.2620742 L21.9938837,7.11043153 C22.0419986,6.67739765 21.8042015,6.26305137 21.406035,6.08614246 L12.406035,2.08736316 C12.1475287,1.97250655 11.8524713,1.97250655 11.593965,2.08736316 L2.59396504,6.08614246 C2.19579848,6.26305137 1.95800139,6.67739765 2.00611627,7.11043153 Z M4.074684,7.61677088 L12,4.09548316 L19.925316,7.61677088 L19.4337115,12.0412112 C19.1973934,14.1680742 18.0011932,16.0700066 16.186518,17.2041786 L12,19.8207524 L7.81348204,17.2041786 C5.9988068,16.0700066 4.80260659,14.1680742 4.56628848,12.0412112 L4.074684,7.61677088 Z"/>
</svg>
