<?xml version="1.0" encoding="iso-8859-1"?>
<!-- Generator: Adobe Illustrator 18.1.1, SVG Export Plug-In . SVG Version: 6.00 Build 0)  -->
<svg version="1.1" id="Capa_1" xmlns="http://www.w3.org/2000/svg" xmlns:xlink="http://www.w3.org/1999/xlink" x="0px" y="0px"
	 viewBox="0 0 612 612" style="enable-background:new 0 0 612 612;" xml:space="preserve">
<g>
	<g>
		<g>
			<path fill="white" d="M608.126,124.457c-3.239-3.945-8.075-6.233-13.179-6.233H107.539L91.367,34.782c-1.555-8.018-8.577-13.81-16.743-13.81
				h-57.57C7.633,20.972,0,28.608,0,38.026s7.633,17.054,17.054,17.054h43.501l73.439,384.296
				c1.435,8.155,8.519,14.101,16.796,14.101h60.242c-32.342,5.858-56.956,34.204-56.956,68.21c0,38.233,31.106,69.34,69.34,69.34
				c38.233,0,69.336-31.106,69.336-69.34c0-34.005-24.609-62.351-56.953-68.21h221.5c-32.344,5.858-56.959,34.204-56.959,68.21
				c0,38.233,31.109,69.34,69.344,69.34c38.233,0,69.339-31.106,69.339-69.34c0-34.005-24.612-62.351-56.953-68.21h51.932
				c9.418,0,17.054-7.636,17.054-17.054c0-9.42-7.636-17.054-17.054-17.054H165.109l-5.224-29.721h387.974
				c8.142,0,15.144-5.752,16.73-13.736l47.086-237.314C612.667,133.591,611.365,128.403,608.126,124.457z M504.917,521.687
				c0,19.426-15.805,35.23-35.23,35.23c-19.428,0-35.236-15.804-35.236-35.23c0-19.426,15.808-35.23,35.236-35.23
				C489.112,486.458,504.917,502.26,504.917,521.687z M258.646,521.687c0,19.426-15.802,35.23-35.227,35.23
				c-19.428,0-35.233-15.804-35.233-35.23c0-19.426,15.805-35.23,35.233-35.23C242.842,486.458,258.646,502.26,258.646,521.687z
				 M153.539,355.539l-23.13-119.328h64.366l19.605,119.328H153.539z M327.099,355.539h-78.154l-19.605-119.328h97.76V355.539z
				 M440.591,355.539h-79.384V236.212h96.513L440.591,355.539z M533.857,355.539H475.05l17.13-119.328h65.352L533.857,355.539z
				 M564.299,202.104h-440.5l-9.648-49.77h460.025L564.299,202.104z"/>
		</g>
	</g>
</g>
</svg>
