<?xml version="1.0" encoding="utf-8"?>
<!-- Svg Vector Icons : http://www.onlinewebfonts.com/icon -->
<!DOCTYPE svg PUBLIC "-//W3C//DTD SVG 1.1//EN" "http://www.w3.org/Graphics/SVG/1.1/DTD/svg11.dtd">
<svg version="1.1" xmlns="http://www.w3.org/2000/svg" xmlns:xlink="http://www.w3.org/1999/xlink" x="0px" y="0px" viewBox="0 0 1000 1000" enable-background="new 0 0 1000 1000" xml:space="preserve">
<metadata> Svg Vector Icons : http://www.onlinewebfonts.com/icon </metadata>
<g><path d="M512.3,803.9c2.6,13,6.8,26.6,12.7,40.9c5.8,14.3,14.5,28.7,25.8,43.3c11.4,14.6,25.7,29.1,42.9,43.3c17.2,14.3,39.1,27.6,65.8,39.9c-17.5,3.9-38,7.1-61.4,9.7c-20.1,2.6-44.5,4.7-73.1,6.3c-28.6,1.6-61.4,2.4-98.4,2.4c-18.8,0-40.6-0.6-65.3-1.9c-24.7-1.3-50.3-3.1-77-5.4c-26.6-2.3-52.9-5-78.9-8.3c-26-3.3-49.7-6.5-71.1-9.7c-21.4-3.2-39.6-6.5-54.6-9.7c-14.9-3.2-24.4-6.5-28.3-9.7C45,940,40,924.1,36.4,897.5c-3.6-26.6-2.1-61.1,4.4-103.3c3.9-24,13.6-42.4,29.2-55c15.6-12.7,33.9-22.7,55-30.2c21.1-7.5,42.9-14.1,65.3-20c22.4-5.8,42.4-14.3,59.9-25.3c13.6-8.4,24.2-16.7,31.7-24.8c7.5-8.1,12.7-16.1,15.6-23.9c2.9-7.8,4.4-15.9,4.4-24.4c0-8.4-0.3-17.9-1-28.3c-1.3-14.9-6.5-26.8-15.6-35.6c-9.1-8.8-18.8-17.7-29.2-26.8c-5.2-4.5-9.9-10.9-14.1-19c-4.2-8.1-8-16.4-11.2-24.8c-3.2-9.7-6.5-20.1-9.7-31.2c-4.5-1.3-9.1-3.6-13.6-6.8c-3.9-3.2-8-7.8-12.2-13.6s-8-14.3-11.2-25.3c-3.9-11-5.4-21.1-4.4-30.2c1-9.1,2.8-17.2,5.4-24.4c2.6-7.1,6.8-14,12.7-20.5c0-24.7,1.3-49.4,3.9-74c2.6-20.8,7.1-43.2,13.6-67.2c6.5-24,16.6-45.5,30.2-64.3c12.3-18.2,26.1-33.1,41.4-44.8c15.3-11.7,30.7-20.8,46.3-27.3c15.6-6.5,31.3-10.9,47.2-13.1c15.9-2.3,31.3-3.4,46.3-3.4c18.8,0,37,2.3,54.5,6.8c17.5,4.5,33.8,10.4,48.7,17.5c14.9,7.1,28.3,15.3,39.9,24.4c11.7,9.1,21.1,18.2,28.3,27.3c16.9,20.8,29.2,43.7,37,68.7c7.8,25,13.3,48.9,16.6,71.6c3.3,26,4.9,52.3,4.9,78.9c4.5,3.2,8.1,7.5,10.7,12.7c2.6,4.5,4.7,10.4,6.3,17.5c1.6,7.1,1.8,16.2,0.5,27.3c-1.3,13.6-4.1,24.5-8.3,32.6c-4.2,8.1-8.9,14.4-14.1,19c-5.8,5.2-12,8.8-18.5,10.7c-3.2,11-6.5,21.4-9.7,31.2c-3.2,8.4-7,16.7-11.2,24.8c-4.2,8.1-8.9,14.5-14.1,19c-5.8,5.2-10.4,10.4-13.6,15.6c-3.3,5.2-5.8,10.4-7.8,15.6c-1.9,5.2-4.1,10.9-6.3,17.1c-2.3,6.2-5.7,12.5-10.2,19c-30.5,46.8-48.2,89-53.1,126.6C502.1,731.5,503.9,768.2,512.3,803.9L512.3,803.9L512.3,803.9z M751.7,529C633.7,529,538,624.7,538,742.8s95.7,213.8,213.8,213.8c118.1,0,213.8-95.7,213.8-213.8C965.5,624.7,869.8,529,751.7,529L751.7,529L751.7,529z M867,688.1L722.4,832.7c-2.9,2.8-7.8,2.5-11.1-0.7l-9.7-9.7c0,0,0,0,0,0l-64.8-64.8c-3.2-3.2-3.2-8.5,0-11.8l17.7-17.7c3.3-3.3,8.5-3.3,11.8,0l50.9,50.9l120.3-120.3c2.9-2.9,7.8-2.5,11,0.7l17.7,17.7C869.5,680.3,869.9,685.3,867,688.1L867,688.1L867,688.1z"/></g>
</svg>