<svg width="1000" height="1000" viewBox="0 0 1000 1000" fill="none" xmlns="http://www.w3.org/2000/svg">
<g clip-path="url(#clip0)">
<path d="M778.3 863.2L229.6 859.9C228.5 859.9 227.6 859 227.6 857.9C227.6 856.8 228.5 855.9 229.6 855.9L778.3 859.2C779.4 859.2 780.3 860.1 780.3 861.2C780.3 862.3 779.4 863.2 778.3 863.2Z" fill="black"/>
<path d="M249.9 834.1H171C170.2 834.1 169.5 833.4 169.5 832.6C169.5 831.8 170.2 831.1 171 831.1H249.9C250.7 831.1 251.4 831.8 251.4 832.6C251.4 833.4 250.8 834.1 249.9 834.1Z" fill="black"/>
<path d="M783.1 280.6C776.4 280.6 769.7 280.2 763.1 279.4C729.1 275.3 694.5 260.9 660.4 236.4C659.7 235.9 659.6 234.9 660.1 234.3C660.6 233.7 661.4 233.5 662.1 234C738.4 288.7 802.1 281.9 842 266.6C885.3 250 910.8 220.1 911.1 219.8C911.6 219.2 912.6 219.1 913.2 219.6C913.8 220.1 913.9 221.1 913.4 221.7C913.1 222 887.1 252.5 843.1 269.3C824 276.8 803.7 280.6 783.1 280.6Z" fill="black"/>
<path d="M744.8 250.1C727.5 250.1 707.1 246.5 684 236.5C683.2 236.2 682.9 235.3 683.2 234.5C683.5 233.7 684.4 233.4 685.2 233.7C734 254.7 769.8 247.1 791.3 237C814.6 226.1 826.6 209.9 826.7 209.8C827.2 209.1 828.1 208.9 828.8 209.4C829.5 209.9 829.7 210.8 829.2 211.5C829.2 211.5 829.2 211.6 829.1 211.6C828.6 212.3 816.7 228.4 792.7 239.7C777.7 246.7 761.4 250.3 744.8 250.1Z" fill="black"/>
<path d="M686.8 218.5L582.4 157.4L615.7 156.3L689 180.7L686.8 218.5Z" fill="#6C32AD"/>
<path d="M615.7 156.3L689 180.7L686.8 218.5L582.4 157.4L615.7 156.3ZM615.7 153.3L582.3 154.4C580.6 154.5 579.4 155.8 579.4 157.5C579.4 158.5 580 159.5 580.9 160L685.3 221.1C685.8 221.4 686.3 221.5 686.8 221.5C688.4 221.5 689.7 220.3 689.8 218.7L692 180.9C692.1 179.6 691.3 178.3 690 177.9L616.7 153.5C616.4 153.4 616 153.3 615.7 153.3Z" fill="black"/>
<path d="M715.7 161.9L566.9 149.6L630.2 224.1L673.5 191.8L604.6 160.7L689 180.7L715.7 161.9Z" fill="#D9CFFF"/>
<path d="M566.9 149.6L715.7 161.8L689 180.7L604.6 160.7L673.5 191.8L630.2 224L566.9 149.6ZM566.9 146.6C565.2 146.6 563.9 147.9 563.9 149.6C563.9 150.4 564.2 151.1 564.7 151.6L628 226C629 227.2 630.8 227.4 632.1 226.5L675.4 194.3C676.3 193.7 676.7 192.6 676.6 191.6C676.5 190.5 675.8 189.6 674.8 189.2L634.4 170.9L688.4 183.7C688.6 183.8 688.9 183.8 689.1 183.8C689.7 183.8 690.3 183.6 690.8 183.2L717.5 164.3C718.9 163.3 719.2 161.5 718.2 160.1C717.7 159.4 716.9 158.9 716 158.8L567.2 146.6H566.9Z" fill="black"/>
<path d="M634.6 214.3C633.9 214.3 633.3 214 632.8 213.6L598.4 179.2C597.4 178.2 597.4 176.6 598.4 175.7C599.4 174.7 601 174.7 601.9 175.7L636.3 210.1C637.3 211.1 637.3 212.7 636.3 213.6C635.9 214.1 635.3 214.3 634.6 214.3Z" fill="white"/>
<path d="M388.9 369.4C388.9 369.4 369 406.4 345.5 386.3C322 366.2 272.1 322.7 238.4 355.8C204.7 388.9 205.3 398.9 175.2 384.6C145.1 370.3 67.1999 397.4 107.6 481.5C148 565.6 424.3 432.3 424.3 432.3L430.7 407L388.9 369.4Z" fill="#6C32AD"/>
<path d="M267.3 343.8C296.3 343.8 328.1 371.4 345.5 386.3C350.5 390.6 355.4 392.3 359.9 392.3C376.6 392.3 388.9 369.5 388.9 369.5L430.7 407L424.3 432.2C424.3 432.2 264.6 509.3 170.3 509.3C140.5 509.3 117.3 501.6 107.6 481.5C74 411.5 122.3 381 156.9 381C163.2 380.9 169.5 382.1 175.3 384.6C184.2 388.9 190.4 391 195.7 391C208.1 391 214.8 379.2 238.5 355.9C247.2 347.2 257.1 343.8 267.3 343.8ZM267.3 340.8C255.5 340.8 245 345.2 236.3 353.7C229.9 359.9 224.9 365.2 220.5 369.9C209.1 381.9 203.4 387.9 195.6 387.9C191.2 387.9 185.5 386.1 176.5 381.8C170.3 379.1 163.6 377.7 156.8 377.9C139.8 377.9 115.1 385.4 101.8 406.7C93.1 420.5 86.6 444.8 104.9 482.8C114.3 502.4 136.3 512.3 170.3 512.3C209.8 512.3 264.8 499.3 333.7 473.6C384.9 454.5 425.2 435.1 425.6 435C426.4 434.6 427 433.9 427.2 433L433.6 407.8C433.9 406.7 433.5 405.5 432.7 404.8L390.9 367.2C390.4 366.7 389.6 366.4 388.9 366.4C388.7 366.4 388.6 366.4 388.4 366.4C387.5 366.6 386.7 367.1 386.3 367.9C386.2 368.1 374.6 389.2 359.9 389.2C355.7 389.2 351.5 387.4 347.4 383.9L346.5 383.1C329.2 368.4 297 340.7 267.3 340.8Z" fill="black"/>
<path d="M448.7 473.8C448.7 473.8 369.2 467.3 300.7 505.8C232.2 544.3 128.5 604.6 154.2 660.3C179.9 716 226.7 730.8 263.9 730.8C287.9 730.8 323.7 709.8 323.7 709.8C323.7 709.8 302.1 764.2 323.7 856.8L724.5 859.5C724.5 859.5 802.5 511.5 519.5 479.5" fill="#00A3FF"/>
<path d="M724.5 861L323.7 858.3C323 858.3 322.4 857.8 322.2 857.1C304 778.7 316.7 726.9 321 713C311.4 718.2 283.8 732.3 263.8 732.3C234.6 732.3 181.5 723 152.8 660.9C146.6 647.4 147.4 632.8 155.2 617.4C161.9 604.3 174 590.2 191.1 575.5C221.6 549.3 263.3 525.1 299.9 504.5C368.1 466.2 447.9 472.3 448.8 472.3C449.6 472.4 450.2 473.1 450.2 473.9C450.1 474.7 449.4 475.3 448.6 475.3C447.8 475.2 368.8 469.2 301.5 507.1C265 527.7 223.4 551.8 193.1 577.8C156.8 609 144.5 635.8 155.6 659.7C183.6 720.3 235.4 729.3 263.9 729.3C287.2 729.3 322.6 708.7 323 708.5C323.7 708.1 324.6 708.3 325.1 709C325.3 709.4 325.4 709.9 325.2 710.3C325 710.8 304.2 764.9 325 855.3L723.4 858C724.9 850.6 733.1 809 733 756.4C732.9 703.2 724.1 627.6 682.7 569.5C646.7 518.9 591.8 489.1 519.5 481C518.7 480.9 518.1 480.2 518.2 479.3C518.3 478.5 519 477.9 519.9 478C593.1 486.3 648.7 516.5 685.2 567.8C727 626.6 736 702.8 736 756.5C736.1 814.6 726.2 859.4 726.1 859.8C725.8 860.5 725.2 861 724.5 861Z" fill="black"/>
<path d="M299.8 656.4C307.8 636.5 334.5 620.5 349.9 578.6C365.3 536.7 311.4 518 311.4 518L314.3 503.9C314.3 503.9 277.4 511.8 240.5 481.8L228.5 498.1C228.5 498.1 182.4 508.3 179.5 546.8C176.6 585.3 138.6 617.6 155.6 664.1" fill="#00A3FF"/>
<path d="M155.5 665.6C154.9 665.6 154.3 665.2 154.1 664.6C143.4 635.3 154.1 611.6 164.4 588.6C170.8 574.4 176.8 561 177.9 546.6C180.7 509.8 222.2 498.1 227.5 496.7L239.2 480.8C239.7 480.1 240.6 480 241.3 480.5C241.3 480.5 241.3 480.5 241.4 480.6C277.3 509.8 313.6 502.5 314 502.4C314.5 502.3 315 502.4 315.4 502.8C315.8 503.2 315.9 503.7 315.8 504.2L313.2 517.1C318.8 519.3 341.6 529.1 350.6 548.1C355.1 557.7 355.4 568.2 351.4 579.2C342.1 604.6 328.5 620.6 317.7 633.5C310.6 642 304.4 649.3 301.3 657C301 657.8 300.1 658.1 299.4 657.8C298.6 657.5 298.3 656.6 298.6 655.8C301.9 647.6 308.2 640.2 315.5 631.5C326.3 618.8 339.6 603 348.7 578.1C352.5 567.9 352.2 558.2 348.1 549.4C338.6 529.2 311.5 519.5 311.2 519.4C310.5 519.2 310.1 518.4 310.2 517.7L312.6 505.7C304.1 506.8 272.4 508.8 241 483.9L229.6 499C229.4 499.3 229.1 499.5 228.7 499.6C228.3 499.7 183.7 510 180.8 546.9C179.7 561.8 173.2 576.1 167 589.9C156.9 612.3 146.5 635.4 156.8 663.6C157.1 664.4 156.7 665.2 155.9 665.5C155.8 665.6 155.6 665.6 155.5 665.6Z" fill="black"/>
<path d="M524.5 480.2C524.5 480.2 537.7 506.8 506.7 513.8C475.7 520.8 469.7 504.8 469.7 504.8C469.7 504.8 448.7 524.8 429.7 507.8C410.7 490.8 433.7 472.8 433.7 472.8L524.5 480.2Z" fill="white"/>
<path d="M492.2 517.1C477.4 517.1 471.3 510.5 469.2 507.2C463.9 511.4 445.5 524 428.7 509C423.2 504.1 420.5 498.5 420.7 492.6C421.1 481 432.3 472.1 432.8 471.7C433.1 471.5 433.5 471.4 433.8 471.4L524.6 478.8C525.1 478.8 525.6 479.2 525.8 479.6C526.1 480.1 531.7 491.7 526.8 502C523.7 508.6 517 513.1 507 515.3C502.2 516.4 497.2 517 492.2 517.1ZM469.7 503.3C469.8 503.3 469.9 503.3 470 503.3C470.5 503.4 470.9 503.8 471.1 504.2C471.3 504.8 477.2 518.9 506.4 512.3C515.4 510.3 521.4 506.3 524.1 500.6C527.7 493 524.6 484.1 523.5 481.5L434.2 474.3C432.2 476 424 483.6 423.7 492.6C423.5 497.6 425.9 502.4 430.7 506.7C448.4 522.6 467.8 504.5 468.7 503.7C469 503.4 469.3 503.3 469.7 503.3Z" fill="black"/>
<path d="M449.6 317.8C470.476 317.8 487.4 300.876 487.4 280C487.4 259.124 470.476 242.2 449.6 242.2C428.724 242.2 411.8 259.124 411.8 280C411.8 300.876 428.724 317.8 449.6 317.8Z" fill="#6C32AD"/>
<path d="M449.6 242.3C470.4 242.3 487.4 259.2 487.4 280C487.4 300.8 470.5 317.8 449.7 317.8C428.9 317.8 411.9 300.9 411.9 280.1C411.9 267.2 418.5 255.2 429.3 248.2C435.4 244.4 442.4 242.3 449.6 242.3ZM449.6 239.3C427.1 239.3 408.8 257.6 408.9 280.1C408.9 302.6 427.2 320.9 449.7 320.8C472.2 320.8 490.5 302.5 490.4 280C490.4 272.2 488.2 264.6 484 258.1C476.5 246.4 463.5 239.3 449.6 239.3Z" fill="black"/>
<path d="M356.6 407.5C356.6 407.5 328.2 387.5 336.9 362.9C345.6 338.3 352 339.7 355.7 326.5C359.4 313.3 381 298 402.5 302C402.5 302 426.4 279.9 450.5 283.6C474.6 287.3 483.9 297.6 492.4 315.2C500.9 332.8 508.4 340.3 514.8 352.5C521.2 364.7 532.5 399.6 485.4 431C438.3 462.4 356.6 407.5 356.6 407.5Z" fill="#6C32AD"/>
<path d="M445 283.1C446.8 283.1 448.7 283.2 450.5 283.5C474.5 287.1 483.9 297.5 492.4 315.1C500.9 332.7 508.4 340.2 514.8 352.4C521.2 364.6 532.5 399.5 485.4 430.9C474.9 437.9 462.7 440.6 450.1 440.6C406 440.6 356.5 407.4 356.5 407.4C356.5 407.4 328.1 387.4 336.8 362.8C345.5 338.2 351.9 339.6 355.6 326.4C358.9 314.6 376.4 301.3 395.4 301.3C397.7 301.3 400.1 301.5 402.4 301.9C402.5 302 423 283.1 445 283.1ZM445 280.1C424.7 280.1 406.3 294.7 401.6 298.7C399.6 298.4 397.5 298.3 395.5 298.3C374.9 298.3 356.5 312.7 352.8 325.6C351.3 331 349.4 333.6 346.7 337.2C343.3 341.9 339 347.8 334 361.8C330.1 372.8 332.5 384.7 341 396.1C344.9 401.3 349.6 406 354.8 409.8H354.9C364.7 416.1 374.9 421.7 385.5 426.6C402.1 434.3 426.8 443.5 450.1 443.5C464.5 443.5 476.9 440.1 487.1 433.3C508.1 419.3 520.3 403 523.1 384.8C524.9 373.2 522.9 361.3 517.4 350.9C514.7 346 511.7 341.2 508.5 336.6C503.4 329.3 498.9 321.7 495 313.7C486.2 295.5 476.1 284.3 450.9 280.4C449 280.3 447 280.1 445 280.1Z" fill="black"/>
<path d="M446.6 372.8C445.8 372.8 445.1 372.2 445 371.4C444.9 370.6 445.6 369.9 446.4 369.8C462 368.4 476.3 350.9 476.5 350.7C477 350.1 478 350 478.6 350.5C479.2 351 479.3 352 478.8 352.6C478.2 353.4 463.5 371.2 446.7 372.8H446.6Z" fill="black"/>
<path d="M447 362C420.7 362 409.2 334.5 409.1 334.1C408.8 333.3 409.1 332.5 409.8 332.1C410.6 331.8 411.4 332.1 411.8 332.8V332.9C412.3 334.3 425.6 366.1 457.4 357.4C458.2 357.2 459 357.7 459.2 358.5C459.4 359.3 458.9 360 458.2 360.2C454.6 361.4 450.8 362 447 362Z" fill="white"/>
<path d="M486.9 244.2C486.3 244.2 485.7 243.8 485.5 243.2C482.7 235.3 478.1 229.8 471.8 226.8C460.6 221.5 447.6 226.1 447.4 226.2C446.6 226.5 445.8 226.2 445.4 225.4C445.1 224.6 445.4 223.8 446.2 223.4C446.3 223.4 446.3 223.3 446.4 223.3C447 223.1 460.7 218.2 473 224C480 227.3 485.2 233.4 488.3 242.1C488.6 242.9 488.2 243.7 487.4 244C487.2 244.2 487 244.2 486.9 244.2Z" fill="black"/>
<path d="M474.6 269.7C474.1 269.7 473.5 269.4 473.3 268.9C469.1 261.1 463.7 256.3 457.2 254.7C446.6 252.1 436.5 259 436.4 259.1C435.7 259.6 434.8 259.4 434.3 258.7C433.8 258 434 257.1 434.7 256.6C435.2 256.3 446 248.9 457.9 251.8C465.3 253.6 471.4 258.8 476 267.4C476.4 268.1 476.1 269 475.4 269.4C475.1 269.6 474.9 269.7 474.6 269.7Z" fill="white"/>
<path d="M432 459V474C432 474 458 513 508 481C508 481 483.5 445.7 470.3 403.9C470.3 403.9 488.8 398.9 485 382.3C481.2 365.7 467.6 363.5 459.9 368.5C459.9 368.5 429.9 391.7 395 328.5C395 328.5 362.6 343.7 357.5 378.2C352.4 412.7 361.1 451.9 387.9 462C414.7 472.1 432 459 432 459Z" fill="#FFCDB2"/>
<path d="M395 328.5C415.1 365 433.6 372.7 445.7 372.7C450.8 372.8 455.7 371.3 459.9 368.5C462.3 367 465.1 366.2 468 366.2C474.9 366.2 482.3 370.7 485 382.3C488.8 398.9 470.3 403.9 470.3 403.9C483.5 445.7 508 481 508 481C493.5 490.3 480.9 493.6 470.5 493.6C445.1 493.6 432 474 432 474V459C432 459 423 465.8 408 465.8C401.2 465.7 394.4 464.4 388 462C361.2 452 352.5 412.7 357.6 378.2C362.7 343.7 395 328.5 395 328.5ZM395 325.5C394.6 325.5 394.1 325.6 393.7 325.8C387.3 329.1 381.4 333.3 376.1 338.2C364.2 349.3 356.7 363 354.5 377.7C351.8 396.1 353 414.7 357.8 430.1C363.4 447.7 373.4 459.7 386.8 464.7C393.5 467.3 400.7 468.6 407.9 468.7C415.2 468.7 422.3 467.2 428.9 464.1V473.9C428.9 474.5 429.1 475.1 429.4 475.6C430 476.5 443.7 496.6 470.4 496.6C482.8 496.6 495.9 492.2 509.5 483.5C510.2 483.1 510.7 482.4 510.8 481.6C511 480.8 510.8 480 510.3 479.3C510.1 479 486.9 445.5 473.9 405.8C476.4 404.8 478.7 403.4 480.8 401.7C487.2 396.6 489.6 389.7 487.8 381.7C484.7 368.1 475.5 363.2 467.9 363.2C464.5 363.2 461.1 364.2 458.2 366L458 366.1C454.3 368.5 450 369.7 445.6 369.6C434.4 369.6 417 362.2 397.5 327C397.1 326.1 396.1 325.5 395 325.5Z" fill="black"/>
<path d="M431.5 462C430.7 462 430 461.3 430 460.5C430 459.9 430.4 459.3 431 459.1C445.3 454.3 456.2 438.5 456.3 438.4C456.8 437.7 457.7 437.5 458.4 438C459.1 438.5 459.3 439.4 458.8 440.1C458.3 440.8 447.3 456.9 431.9 462C431.8 462 431.7 462 431.5 462Z" fill="black"/>
<path d="M315.5 441.4C315.5 441.4 329 476.3 309.5 511.5C290 546.7 252.6 494.7 252.6 494.7L315.5 441.4Z" fill="#FFCDB2"/>
<path d="M292.2 525.2C273 525.2 252.3 496.8 251.5 495.5C251 494.9 251.2 494 251.8 493.5L314.7 440.2C315.3 439.7 316.3 439.7 316.8 440.4C316.9 440.5 317 440.7 317.1 440.8C317.2 441.2 330.6 476.7 311 512.2C306.5 520.4 300.5 524.7 293.5 525.2C292.9 525.2 292.5 525.2 292.2 525.2ZM254.7 494.9C258.8 500.3 277.2 523.1 293.1 522.2C299.1 521.9 304.2 518 308.2 510.8C324.5 481.4 317.2 451.9 314.8 444L254.7 494.9Z" fill="black"/>
<path d="M469.9 396.2C469.7 396.2 469.4 396.1 469.2 396C468.5 395.6 468.2 394.7 468.6 394C471.5 388.5 472.1 384.3 470.5 381.4C468.1 377.3 461.7 377 461.7 377C460.9 377 460.2 376.3 460.3 375.4C460.4 374.5 461 373.9 461.9 374C462.2 374 470 374.4 473.2 379.9C475.4 383.8 474.8 389 471.4 395.4C471 395.9 470.4 396.2 469.9 396.2Z" fill="black"/>
<path d="M396.5 379.4C415.9 380.9 440.2 369.2 445.5 375.3C450.8 381.4 448.7 390.9 438.8 394.5C428.9 398.1 418.7 399.2 397.7 400.4C376.7 401.6 356.1 401.2 357 389.8C357.9 378.4 368 377.2 396.5 379.4Z" fill="#FFB49F"/>
<path d="M373 370.2C372.6 370.2 372.3 370.1 372 369.8C371.4 369.3 371.3 368.3 371.8 367.7C372.1 367.4 378.4 360.1 386.8 360.7C387.6 360.8 388.3 361.5 388.2 362.3C388.1 363.1 387.4 363.8 386.6 363.7C379.7 363.2 374.1 369.6 374.1 369.6C373.8 370 373.4 370.2 373 370.2Z" fill="black"/>
<path d="M394.5 414.3H394.2C393.4 414.1 392.9 413.3 393 412.5L399.4 381.7C399.6 380.9 400.4 380.4 401.2 380.5C402 380.7 402.5 381.5 402.4 382.3L396.1 413.1C395.8 413.8 395.2 414.3 394.5 414.3Z" fill="black"/>
<path d="M478 409.1C481.424 409.1 484.2 406.324 484.2 402.9C484.2 399.476 481.424 396.7 478 396.7C474.576 396.7 471.8 399.476 471.8 402.9C471.8 406.324 474.576 409.1 478 409.1Z" fill="#00A3FF"/>
<path d="M478 396.7C481.4 396.7 484.2 399.4 484.2 402.8C484.2 406.2 481.5 409 478.1 409C474.7 409 471.9 406.3 471.9 402.9C471.9 400.8 472.9 398.8 474.7 397.7C475.7 397.1 476.8 396.7 478 396.7ZM478 393.7C472.9 393.7 468.8 397.8 468.9 402.9C468.9 408 473 412.1 478.1 412C482.4 412 486.1 409 487 404.8C488.1 399.8 485 394.9 480 393.9C479.3 393.8 478.7 393.7 478 393.7Z" fill="black"/>
<path d="M428.4 389.3C430.333 389.3 431.9 387.733 431.9 385.8C431.9 383.867 430.333 382.3 428.4 382.3C426.467 382.3 424.9 383.867 424.9 385.8C424.9 387.733 426.467 389.3 428.4 389.3Z" fill="black"/>
<path d="M377.2 392.8C379.133 392.8 380.7 391.233 380.7 389.3C380.7 387.367 379.133 385.8 377.2 385.8C375.267 385.8 373.7 387.367 373.7 389.3C373.7 391.233 375.267 392.8 377.2 392.8Z" fill="black"/>
<path d="M412.9 439.3C411.7 439.3 410.5 439.1 409.4 438.8C408.6 438.6 408.1 437.8 408.2 437C408.4 436.2 409.2 435.7 410 435.8C410.1 435.8 410.1 435.8 410.2 435.9C419.9 438.5 426.4 425.8 426.4 425.6C426.8 424.9 427.7 424.6 428.4 424.9C429.1 425.3 429.4 426.2 429.1 426.9C428.8 427.6 422.8 439.3 412.9 439.3Z" fill="black"/>
<path d="M409.2 361.7C408.4 361.7 407.7 361.1 407.7 360.2C407.7 359.8 407.8 359.4 408.1 359.1C408.6 358.6 413.1 354 417.3 355.5C418.1 355.8 418.5 356.6 418.2 357.4C417.9 358.2 417.1 358.6 416.3 358.3C414.3 357.6 411.2 360.2 410.3 361.1C410 361.5 409.6 361.7 409.2 361.7Z" fill="black"/>
<path d="M229.6 499.2C229.5 499.1 241 483.7 241 483.7C277.9 513.7 312.6 505.4 312.6 505.4L310.1 519.5L310.5 518.9C310.5 518.9 273.1 545.5 229.6 499.2Z" fill="#0094E7"/>
<path d="M573.2 538.9C577.674 538.9 581.3 535.273 581.3 530.8C581.3 526.326 577.674 522.7 573.2 522.7C568.727 522.7 565.1 526.326 565.1 530.8C565.1 535.273 568.727 538.9 573.2 538.9Z" fill="#2CB3FF"/>
<path d="M677.2 626.9C681.674 626.9 685.3 623.273 685.3 618.8C685.3 614.326 681.674 610.7 677.2 610.7C672.727 610.7 669.1 614.326 669.1 618.8C669.1 623.273 672.727 626.9 677.2 626.9Z" fill="#2CB3FF"/>
<path d="M551.2 629.9C555.674 629.9 559.3 626.273 559.3 621.8C559.3 617.326 555.674 613.7 551.2 613.7C546.727 613.7 543.1 617.326 543.1 621.8C543.1 626.273 546.727 629.9 551.2 629.9Z" fill="#2CB3FF"/>
<path d="M381.2 546.9C385.673 546.9 389.3 543.273 389.3 538.8C389.3 534.326 385.673 530.7 381.2 530.7C376.726 530.7 373.1 534.326 373.1 538.8C373.1 543.273 376.726 546.9 381.2 546.9Z" fill="#2CB3FF"/>
<path d="M450.2 591.9C454.673 591.9 458.3 588.273 458.3 583.8C458.3 579.326 454.673 575.7 450.2 575.7C445.726 575.7 442.1 579.326 442.1 583.8C442.1 588.273 445.726 591.9 450.2 591.9Z" fill="#2CB3FF"/>
<path d="M365.2 764.9C369.673 764.9 373.3 761.273 373.3 756.8C373.3 752.326 369.673 748.7 365.2 748.7C360.726 748.7 357.1 752.326 357.1 756.8C357.1 761.273 360.726 764.9 365.2 764.9Z" fill="#2CB3FF"/>
<path d="M477.2 738.9C481.673 738.9 485.3 735.273 485.3 730.8C485.3 726.326 481.673 722.7 477.2 722.7C472.726 722.7 469.1 726.326 469.1 730.8C469.1 735.273 472.726 738.9 477.2 738.9Z" fill="#2CB3FF"/>
<path d="M381.2 656.9C385.673 656.9 389.3 653.273 389.3 648.8C389.3 644.326 385.673 640.7 381.2 640.7C376.726 640.7 373.1 644.326 373.1 648.8C373.1 653.273 376.726 656.9 381.2 656.9Z" fill="#2CB3FF"/>
<path d="M603.2 722.9C607.674 722.9 611.3 719.273 611.3 714.8C611.3 710.326 607.674 706.7 603.2 706.7C598.727 706.7 595.1 710.326 595.1 714.8C595.1 719.273 598.727 722.9 603.2 722.9Z" fill="#2CB3FF"/>
<path d="M317.2 607.9C321.673 607.9 325.3 604.273 325.3 599.8C325.3 595.326 321.673 591.7 317.2 591.7C312.726 591.7 309.1 595.326 309.1 599.8C309.1 604.273 312.726 607.9 317.2 607.9Z" fill="#2CB3FF"/>
<path d="M244.2 566.9C248.673 566.9 252.3 563.273 252.3 558.8C252.3 554.326 248.673 550.7 244.2 550.7C239.726 550.7 236.1 554.326 236.1 558.8C236.1 563.273 239.726 566.9 244.2 566.9Z" fill="#2CB3FF"/>
<path d="M189.2 629.9C193.673 629.9 197.3 626.273 197.3 621.8C197.3 617.326 193.673 613.7 189.2 613.7C184.726 613.7 181.1 617.326 181.1 621.8C181.1 626.273 184.726 629.9 189.2 629.9Z" fill="#2CB3FF"/>
<path d="M236.2 703.9C240.673 703.9 244.3 700.273 244.3 695.8C244.3 691.326 240.673 687.7 236.2 687.7C231.726 687.7 228.1 691.326 228.1 695.8C228.1 700.273 231.726 703.9 236.2 703.9Z" fill="#2CB3FF"/>
<path d="M154 580.9C148.5 586.8 143.8 593.4 140 600.5C136.2 607.6 133.3 615.1 131.3 622.9C129.3 630.8 128.4 639 128.5 647.1C128.8 663.9 133.6 680.4 142.3 694.8C142.8 695.7 143.4 696.6 144 697.5C144.4 698.2 145.3 698.5 146.1 698C146.9 697.5 147.1 696.7 146.6 695.9C142.1 689.1 138.5 681.7 136 673.9C133.5 666.2 132 658.2 131.6 650.1C131.2 642.1 131.8 634.2 133.5 626.4C135.1 618.8 137.7 611.4 141.2 604.5C144.7 597.5 149 591 154.1 585.1C154.7 584.4 155.4 583.7 156 582.9C157.3 581.5 155.2 579.4 154 580.9Z" fill="black"/>
<path d="M307.1 467.7C318.7 450.1 317.8 430.2 307.9 414C291.9 388.1 299.8 377.8 295.1 360C290.4 342.2 268.7 354.1 263.8 384.9C263.8 384.9 223.3 375.9 231 415.6C231 415.6 205.6 423.9 224.8 451.2C224.8 451.2 209.2 463.6 218.5 481.1C227.8 498.6 259.2 501.5 272.1 495.6" fill="#FFCDB2"/>
<path d="M256.1 499.9C241.6 499.9 224.1 494.8 217.1 481.8C208.7 466.3 219.2 454.3 222.7 451C216.6 442 214.6 433.9 216.9 427.1C219.4 419.5 226.3 415.9 229.2 414.6C227.2 403.1 229.1 394.6 234.7 389.1C243.3 380.8 257.7 382.3 262.5 383.1C266.2 363 277.2 350.6 286 350.2C291 350 294.8 353.4 296.5 359.6C298.2 365.8 298.3 371.3 298.4 376.6C298.6 386.4 298.8 396.6 309.1 413.2C319.9 430.7 319.6 451.3 308.3 468.5C307.8 469.2 306.9 469.4 306.2 468.9C305.5 468.4 305.3 467.5 305.8 466.8C316.6 450.4 316.8 431.5 306.5 414.8C295.8 397.5 295.6 386.9 295.4 376.7C295.3 371.4 295.2 366.3 293.6 360.4C292.3 355.6 289.7 353.1 286.2 353.2C278.5 353.6 268.3 365.9 265.2 385.1C265.1 385.5 264.9 385.9 264.6 386.1C264.3 386.3 263.8 386.4 263.4 386.3C263.2 386.3 245.7 382.5 236.8 391.2C231.7 396.1 230.2 404.2 232.4 415.2C232.5 415.9 232.1 416.7 231.4 416.9C231.3 416.9 222.4 420 219.8 427.9C217.8 434 219.9 441.5 226 450.2C226.4 450.8 226.3 451.7 225.7 452.2C225.1 452.7 211.1 464.1 219.8 480.2C229 497.3 259.6 499.5 271.4 494.1C272.2 493.8 273 494.1 273.4 494.8C273.7 495.6 273.4 496.4 272.7 496.8C268.6 498.8 262.7 499.9 256.1 499.9Z" fill="black"/>
<path d="M221.5 484.4C221.5 484.4 252.7 498.8 267.5 481.5C285.5 460.5 245.5 450.4 226.3 450.5" fill="#FFCDB2"/>
<path d="M246.5 491.5C233.8 491.5 221.7 486 220.9 485.7C220.1 485.4 219.8 484.5 220.1 483.7C220.4 482.9 221.3 482.6 222.1 482.9H222.2C222.5 483 252.5 496.6 266.4 480.4C270.4 475.7 271.5 471.5 269.8 467.7C265.2 457.8 241.4 451.8 226.4 451.9C225.6 451.9 224.9 451.2 224.9 450.4C224.9 449.6 225.6 448.9 226.4 448.9C239.7 448.8 266.8 453.8 272.6 466.4C274.9 471.4 273.6 476.7 268.8 482.4C262.7 489.4 254.4 491.5 246.5 491.5Z" fill="black"/>
<path d="M230 416.1C230 416.1 270.2 413.8 278.5 432.5C286.8 451.2 259.5 456.5 259.5 456.5" fill="#FFCDB2"/>
<path d="M259.5 458C258.7 458.1 257.9 457.5 257.9 456.6C257.8 455.8 258.4 455 259.3 455C259.4 455 273.3 452.2 277.5 444.1C279.2 440.9 279.1 437.2 277.3 433.1C269.5 415.6 230.6 417.6 230.3 417.6C229.5 417.6 228.8 417 228.7 416.2C228.6 415.4 229.3 414.7 230.1 414.6C231.8 414.5 271.5 412.4 280.1 431.9C282.3 436.9 282.4 441.5 280.2 445.5C275.3 454.9 260.6 457.8 260 457.9L259.5 458Z" fill="black"/>
<path d="M263.6 385.7C263.6 385.7 289 389 288.5 405.5C288 418.5 268.5 422.5 268.5 422.5" fill="#FFCDB2"/>
<path d="M268.5 424C267.7 424.1 266.9 423.5 266.9 422.6C266.9 421.7 267.4 421 268.3 421C268.5 421 286.7 417.1 287.1 405.4C287.6 390.4 263.8 387.2 263.6 387.1C262.8 387 262.2 386.2 262.3 385.4C262.4 384.6 263.2 384 264 384.1C265.1 384.2 290.8 387.7 290.2 405.5C289.7 419.6 269.8 423.8 269 423.9L268.5 424Z" fill="black"/>
<path d="M277.4 447.4C277.4 447.4 305.9 456.9 297.2 474.3Z" fill="#FFCDB2"/>
<path d="M297.2 475.8C296.4 475.8 295.7 475.1 295.7 474.3C295.7 474.1 295.8 473.8 295.9 473.6C297.6 470.5 297.9 466.8 296.5 463.6C292.6 454.2 277.1 448.9 276.9 448.8C276.1 448.5 275.7 447.7 275.9 446.9C276.2 446.1 277 445.7 277.8 446C278.5 446.2 294.8 451.8 299.2 462.5C300.9 466.6 300.6 471.2 298.5 475C298.3 475.5 297.8 475.8 297.2 475.8Z" fill="black"/>
<path d="M345.5 629.5C345.5 629.5 320.5 698.3 317.5 733.9Z" fill="#6C32AD"/>
<path d="M317.5 735.4H317.4C316.6 735.3 316 734.6 316 733.8C319 698.4 343.9 629.7 344.1 629C344.4 628.2 345.3 627.9 346.1 628.2C346.8 628.5 347.1 629.3 346.9 630C346.6 630.7 321.9 699.1 319 734C319 734.8 318.3 735.4 317.5 735.4Z" fill="black"/>
<path d="M228.5 719C228.3 719 228 718.9 227.8 718.8C193.4 701.1 177.3 680.8 169.9 666.9C161.8 651.7 162 640.9 162 640.4C162 639.6 162.7 638.9 163.5 638.9C164.3 638.9 165 639.6 165 640.4C165 640.6 164.9 651.1 172.7 665.6C179.9 679 195.6 698.7 229.2 716C229.9 716.4 230.2 717.3 229.8 718C229.5 718.7 229 719 228.5 719Z" fill="white"/>
<path d="M181.5 434C181.3 434 181.2 434 181 433.9C154.7 424.5 131.5 407.9 114.1 386C100 368.4 88.9 346.9 81.1 322.2C67.9 280.2 69 242.9 69 242.5C69 241.7 69.7 241 70.6 241.1C71.4 241.1 72.1 241.8 72.1 242.6C72.1 243 71 279.9 84.1 321.4C96.1 359.6 122.8 409.6 182.2 431.1C183 431.4 183.4 432.2 183.1 433C182.7 433.6 182.2 434 181.5 434Z" fill="black"/>
<path d="M137.3 442.9H137.2C107.2 440.2 85.4 421.6 72.3 406.5C63.8 396.7 56.7 385.8 51.1 374.1C50.8 373.3 51.2 372.5 52 372.2C52.7 372 53.5 372.3 53.8 372.9C54.1 373.5 81.8 435 137.4 439.9C138.2 439.9 138.9 440.6 138.8 441.5C138.7 442.4 138.2 442.9 137.3 442.9Z" fill="black"/>
<path d="M402.2 839.9C406.673 839.9 410.3 836.273 410.3 831.8C410.3 827.326 406.673 823.7 402.2 823.7C397.726 823.7 394.1 827.326 394.1 831.8C394.1 836.273 397.726 839.9 402.2 839.9Z" fill="#2CB3FF"/>
<path d="M698.2 733.9C702.674 733.9 706.3 730.273 706.3 725.8C706.3 721.326 702.674 717.7 698.2 717.7C693.727 717.7 690.1 721.326 690.1 725.8C690.1 730.273 693.727 733.9 698.2 733.9Z" fill="#2CB3FF"/>
<path d="M661.2 788.9C665.674 788.9 669.3 785.273 669.3 780.8C669.3 776.326 665.674 772.7 661.2 772.7C656.727 772.7 653.1 776.326 653.1 780.8C653.1 785.273 656.727 788.9 661.2 788.9Z" fill="#2CB3FF"/>
<path d="M497.2 832.9C501.673 832.9 505.3 829.273 505.3 824.8C505.3 820.326 501.673 816.7 497.2 816.7C492.726 816.7 489.1 820.326 489.1 824.8C489.1 829.273 492.726 832.9 497.2 832.9Z" fill="#2CB3FF"/>
<path d="M654.9 578.8C627.1 537.9 601.2 510.3 579.1 526.1C543.5 551.5 603.5 619.5 569.9 679.6C550.6 714.1 556.9 771.1 590.2 794.3C623.5 817.5 688.2 627.8 654.9 578.8Z" fill="#FFCDB2"/>
<path d="M596.2 797.7C593.8 797.7 591.4 796.9 589.4 795.5C554.5 771.3 549.6 712.9 568.6 678.9C585.7 648.3 578.3 615.9 571.7 587.4C565.6 560.8 560.3 537.8 578.3 524.9C583.6 520.9 590.4 519.3 597 520.5C612.9 523.4 631.2 541.1 656.3 578C668.8 596.3 668.9 637.1 656.7 687.1C645.6 732.5 627.2 773.9 610.8 790.1C604.9 795.8 600 797.7 596.2 797.7ZM592.5 523.1C588 523.1 583.6 524.6 580 527.3C563.6 539 568.5 560 574.6 586.7C581.3 615.8 588.9 648.8 571.2 680.4C562 696.9 558.5 719.5 561.8 741C565.3 763.6 576 782.6 591.1 793.1C595.9 796.4 601.8 794.7 608.6 788C624.6 772.2 642.7 731.4 653.7 686.4C665.7 637.2 665.7 597.3 653.7 579.7C637.2 555.4 615.7 527 596.4 523.5C595.1 523.2 593.8 523.1 592.5 523.1Z" fill="black"/>
<path d="M740.5 931.8L611.3 928.8C573.3 928.1 532.5 897 544.9 863.1L682.4 475.2C694.8 441.3 735.7 414.3 773.7 415L935.9 418C980.6 422.5 987.6 467.5 965.6 515.5L831.8 878.6C819.4 912.6 812.5 931.5 740.5 931.8Z" fill="#6C32AD"/>
<path d="M772.2 415H773.7L935.9 418C980.6 422.5 987.6 467.5 965.6 515.5L831.8 878.6C819.4 912.5 812.5 931.4 740.5 931.8L611.3 928.8C573.3 928.1 532.5 897 544.9 863.1L682.4 475.2C694.6 441.7 734.6 415 772.2 415ZM772.2 412C753.4 412 733.5 418.4 716.1 430C698.7 441.6 685.7 457.3 679.5 474.1L542 862.1C537.4 874.7 539.3 887.8 547.5 899.8C560.1 918.2 586.3 931.3 611.1 931.8L740.3 934.8H740.4C775.1 934.6 796.7 930.2 810.2 920.3C823.2 910.8 828.2 897.1 834.5 879.8V879.7L968.2 516.7C982.5 485.4 984.5 456.4 973.5 437.3C966.1 424.4 953.2 416.7 936 415H935.7L773.5 412H772.2Z" fill="black"/>
<path d="M735.6 906.7L595.4 904.1C560.6 903.4 541.6 877.8 553 846.7L688.3 476.6C699.6 445.6 737 421 771.8 421.6L912 424.2C946.8 424.8 965.8 450.5 954.4 481.6L819.1 851.7C807.7 882.8 770.4 907.4 735.6 906.7Z" fill="#D9CFFF"/>
<path d="M736.9 908.2H735.5L595.3 905.6C577.4 905.3 563 898.5 554.8 886.6C547.2 875.5 546 861.2 551.5 846.2L686.8 476.1C698.3 444.6 736.4 419.4 771.7 420.1L911.9 422.8C929.8 423.1 944.2 429.9 952.4 441.8C960 452.9 961.2 467.2 955.7 482.2L820.5 852.2C809.1 883.4 771.8 908.2 736.9 908.2ZM735.6 905.2C769.7 905.9 806.5 881.6 817.6 851.2L952.9 481.1C958 467.1 957 453.7 949.9 443.5C942.3 432.4 928.8 426.1 911.9 425.8L771.7 423.2H770.4C736.7 423.2 700.6 447.2 689.7 477.2L554.4 847.2C549.3 861.2 550.4 874.6 557.4 884.9C565 896 578.5 902.3 595.4 902.6L735.6 905.2Z" fill="black"/>
<path d="M858.9 618.9L685.5 615.6L731.8 489L905.2 492.2L858.9 618.9Z" fill="#6C32AD"/>
<path d="M731.8 489L905.2 492.3L858.9 618.9L685.5 615.6L731.8 489ZM731.8 486C730.5 486 729.4 486.8 729 488L682.7 614.6C682.1 616.2 683 617.9 684.5 618.4C684.8 618.5 685.1 618.6 685.4 618.6L858.8 621.9C860.1 621.9 861.2 621.1 861.6 619.9L907.9 493.2C908.5 491.6 907.6 489.9 906.1 489.4C905.8 489.3 905.5 489.2 905.2 489.2L731.8 486Z" fill="black"/>
<path d="M775.1 542.2C774.9 542.2 774.7 542.2 774.5 542.1C773.7 541.8 773.3 540.9 773.7 540.1C774.3 538.7 788 505.3 803.9 499.7C810.2 497.5 814 499.4 816.1 501.4C822.2 507.2 822.7 522.3 817.3 539.7C817.1 540.5 816.2 540.9 815.4 540.7C814.6 540.5 814.2 539.6 814.4 538.8C819.3 522.7 819.1 508.5 813.9 503.5C811.7 501.4 808.7 501 804.8 502.4C790.2 507.6 776.5 540.8 776.4 541.1C776.3 541.8 775.8 542.2 775.1 542.2Z" fill="black"/>
<path d="M763 527.5L715.7 591.1L830.1 593.3L838.8 529L763 527.5Z" fill="#D9CFFF"/>
<path d="M830.1 594.8L715.7 592.6C714.9 592.6 714.2 591.9 714.2 591.1C714.2 590.8 714.3 590.5 714.5 590.2L761.8 526.6C762.1 526.2 762.5 526 763 526L838.8 527.4C839.6 527.4 840.3 528.1 840.3 528.9C840.3 529 840.3 529 840.3 529.1L831.6 593.4C831.5 594.2 830.9 594.8 830.1 594.8ZM718.6 589.7L828.8 591.8L837.1 530.5L763.7 529.1L718.6 589.7Z" fill="black"/>
<path d="M811.4 566.8C811.2 566.8 811 566.8 810.8 566.7C810 566.4 809.7 565.5 810 564.7C810.4 563.7 819.6 541.5 830.3 537.7C834.7 536.2 837.4 537.5 838.9 539C843.1 543 843.5 552.9 839.9 564.8C839.7 565.6 838.8 566 838 565.8C837.2 565.6 836.8 564.7 837 563.9C840.2 553.4 840.1 544.3 836.8 541.1C835.5 539.8 833.7 539.6 831.3 540.5C821.9 543.8 812.9 565.6 812.8 565.8C812.6 566.4 812 566.8 811.4 566.8Z" fill="black"/>
<path d="M803.3 556.6L772.1 598.6L847.7 600.1L853.4 557.6L803.3 556.6Z" fill="#00A3FF"/>
<path d="M847.7 601.6L772.1 600.2C771.3 600.2 770.6 599.5 770.6 598.7C770.6 598.4 770.7 598.1 770.9 597.8L802.2 555.8C802.5 555.4 803 555.2 803.4 555.2L853.5 556.1C853.9 556.1 854.3 556.3 854.6 556.6C854.9 556.9 855 557.4 854.9 557.8L849.2 600.3C849.1 601 848.5 601.6 847.7 601.6ZM775 597.2L846.4 598.5L851.7 559L804 558.1L775 597.2Z" fill="black"/>
<path d="M733.1 708.2L666.1 706.9C656.9 706.7 651.8 699.9 654.9 691.7L666.1 661C669.1 652.8 679 646.2 688.2 646.4L755.2 647.7C764.4 647.9 769.5 654.7 766.4 662.9L755.2 693.6C752.3 701.9 742.4 708.4 733.1 708.2Z" fill="#6C32AD"/>
<path d="M687.9 646.5H688.3L755.3 647.8C764.5 648 769.6 654.8 766.5 663L755.3 693.7C752.3 701.8 742.6 708.3 733.5 708.3H733.1L666.1 707C656.9 706.8 651.8 700 654.9 691.8L666.1 661.1C669.1 652.9 678.8 646.5 687.9 646.5ZM687.9 643.5C677.5 643.5 666.7 650.8 663.3 660L652.1 690.7C650.4 695.5 650.8 700.1 653.3 703.8C655.9 707.6 660.6 709.9 666.1 710L733.1 711.3H733.5C743.9 711.3 754.7 704 758.1 694.8L769.4 664.1C771.1 659.3 770.7 654.7 768.2 651C765.7 647.3 760.9 644.9 755.4 644.8L688.4 643.5H687.9Z" fill="black"/>
<path d="M705.3 784.4L638.3 783.1C629.1 782.9 624 776.1 627.1 767.9L638.3 737.2C641.3 729 651.2 722.4 660.4 722.6L727.4 723.9C736.6 724.1 741.7 730.9 738.6 739.1L727.4 769.8C724.4 778 714.5 784.5 705.3 784.4Z" fill="#D9CFFF"/>
<path d="M705.7 785.9H705.3L638.3 784.6C633.3 784.5 629 782.5 626.7 779.1C624.5 775.9 624.1 771.7 625.7 767.4L636.9 736.7C640.1 727.9 650.7 721 660.5 721.1L727.5 722.4C732.5 722.5 736.8 724.5 739.1 727.9C741.3 731.1 741.7 735.3 740.1 739.6L728.9 770.3C725.7 779 715.3 785.9 705.7 785.9ZM705.3 782.9C713.9 783.1 723.2 777 726 769.3L737.2 738.6C738.4 735.2 738.2 732.1 736.5 729.6C734.7 727 731.4 725.5 727.3 725.4L660.3 724.1C651.7 724 642.4 730 639.6 737.7L628.4 768.4C627.2 771.8 627.4 774.9 629.1 777.4C630.9 780 634.2 781.5 638.3 781.6L705.3 782.9Z" fill="black"/>
<path d="M674.6 868.3L607.6 867C598.4 866.8 593.3 860 596.4 851.8L607.6 821.1C610.6 812.9 620.5 806.3 629.7 806.5L696.7 807.8C705.9 808 711 814.8 708 823L696.8 853.7C693.8 862 683.8 868.5 674.6 868.3Z" fill="white"/>
<path d="M675 869.8H674.6L607.6 868.5C602.6 868.4 598.3 866.4 596 863C593.8 859.8 593.4 855.6 595 851.3L606.2 820.6C609.4 811.8 620 804.9 629.8 805L696.8 806.3C701.8 806.4 706.1 808.4 708.4 811.8C710.6 815 711 819.2 709.4 823.5L698.2 854.2C695 862.9 684.7 869.8 675 869.8ZM674.7 866.8H675C683.5 866.8 692.6 860.8 695.3 853.2L706.5 822.5C707.7 819.1 707.5 816 705.8 813.5C704 810.9 700.7 809.4 696.6 809.3L629.6 808C620.9 807.9 611.7 813.9 608.9 821.6L597.7 852.3C596.5 855.7 596.7 858.8 598.4 861.3C600.2 863.9 603.5 865.4 607.6 865.5L674.7 866.8Z" fill="black"/>
<path d="M825.677 690.514C838.754 679.293 842.911 662.688 834.963 653.425C827.015 644.162 809.97 645.75 796.894 656.971C783.817 668.192 779.659 684.797 787.607 694.06C795.556 703.323 812.6 701.735 825.677 690.514Z" fill="#00A3FF"/>
<path d="M802.1 701.7H801.6C794.5 701.6 788.7 698.7 785.3 693.7C781.5 688.2 781 680.6 783.9 672.9C789.4 657.8 806 645.8 820.9 646.1C828 646.2 833.7 649.1 837.2 654.1C841 659.6 841.5 667.2 838.6 674.9C833.2 689.8 816.9 701.7 802.1 701.7ZM820.4 649C806.8 649 791.7 660.1 786.7 673.9C784.2 680.7 784.6 687.3 787.8 692C790.7 696.2 795.6 698.6 801.7 698.7C815.4 699 830.8 687.8 835.9 673.9C838.4 667.1 838 660.5 834.8 655.8C831.9 651.6 827 649.2 820.9 649.1L820.4 649Z" fill="black"/>
<path d="M795.759 772.317C808.836 761.096 812.994 744.491 805.046 735.228C797.097 725.965 780.053 727.553 766.976 738.774C753.9 749.995 749.742 766.6 757.69 775.863C765.638 785.126 782.683 783.538 795.759 772.317Z" fill="#00A3FF"/>
<path d="M772.2 783.5H771.7C764.6 783.4 758.8 780.5 755.4 775.5C751.6 770 751.1 762.4 754 754.7C759.5 739.8 775.8 727.9 790.5 727.9H791C798.1 728 803.8 730.9 807.3 735.9C811.1 741.4 811.6 749 808.7 756.7C803.3 771.6 787 783.5 772.2 783.5ZM790.5 730.9C776.9 730.9 761.8 741.9 756.8 755.8C754.3 762.6 754.7 769.2 757.9 773.9C760.8 778.1 765.7 780.5 771.8 780.6C785.5 780.9 800.9 769.7 806 755.7C808.5 748.9 808.1 742.3 804.9 737.6C802.1 733.4 797.1 731 791.1 730.9H790.5Z" fill="black"/>
<path d="M765.091 856.32C778.168 845.099 782.325 828.494 774.377 819.231C766.429 809.969 749.385 811.556 736.308 822.777C723.231 833.998 719.074 850.603 727.022 859.866C734.97 869.129 752.014 867.541 765.091 856.32Z" fill="#00A3FF"/>
<path d="M741.5 867.5H741C733.9 867.4 728.1 864.5 724.7 859.5C720.9 854 720.4 846.4 723.3 838.7C728.8 823.8 745.1 811.9 759.8 811.9H760.3C767.4 812 773.2 814.9 776.6 819.9C780.4 825.4 780.9 833 778 840.7C772.6 855.6 756.3 867.5 741.5 867.5ZM759.8 814.8C746.2 814.8 731.2 825.8 726.1 839.7C723.6 846.5 724 853.1 727.2 857.8C730.1 862 735 864.4 741.1 864.5C754.9 864.8 770.2 853.6 775.3 839.6C777.8 832.8 777.4 826.2 774.2 821.5C771.3 817.3 766.4 814.9 760.3 814.8H759.8Z" fill="black"/>
<path d="M734.8 674L686.3 673C685.5 673 684.8 672.3 684.8 671.5C684.8 670.7 685.5 670 686.3 670L734.7 670.9C735.5 670.9 736.2 671.6 736.2 672.4C736.2 673.2 735.6 673.9 734.8 674Z" fill="black"/>
<path d="M714.7 690L683.8 689.4C683 689.4 682.3 688.7 682.3 687.9C682.3 687.1 683 686.4 683.8 686.4L714.7 687C715.5 687 716.2 687.7 716.2 688.5C716.2 689.3 715.6 690 714.7 690Z" fill="black"/>
<path d="M704.8 755.8L656.4 754.9C655.6 754.9 654.9 754.2 654.9 753.4C654.9 752.6 655.6 751.9 656.4 751.9L704.8 752.8C705.6 752.8 706.3 753.5 706.3 754.3C706.3 755.1 705.7 755.8 704.8 755.8Z" fill="black"/>
<path d="M653.9 848.7L622.3 848.1C621.5 848.1 620.8 847.4 620.8 846.6C620.8 845.8 621.5 845.1 622.3 845.1L653.9 845.7C654.7 845.7 655.4 846.4 655.4 847.2C655.4 848 654.8 848.7 653.9 848.7Z" fill="black"/>
<path d="M676.5 833.3L628 832.4C627.2 832.4 626.5 831.7 626.5 830.9C626.5 830.1 627.2 829.4 628 829.4L676.4 830.3C677.2 830.3 677.9 831 677.9 831.8C677.9 832.6 677.3 833.3 676.5 833.3Z" fill="black"/>
<path d="M742.5 833.1L741.7 848.8L764.8 826.3" fill="#00A3FF"/>
<path d="M741.7 850.3C740.9 850.3 740.2 849.6 740.2 848.8V848.7L741 833C741 832.2 741.8 831.5 742.6 831.6C743.4 831.6 744.1 832.4 744 833.2L743.4 845.1L763.7 825.3C764.3 824.7 765.3 824.8 765.8 825.4C766.3 826 766.3 826.9 765.8 827.5L742.7 850C742.5 850.2 742.1 850.3 741.7 850.3Z" fill="black"/>
<path d="M772.7 750.5L776.2 767.8L799.5 746.7" fill="#00A3FF"/>
<path d="M776.2 769.3C776 769.3 775.9 769.3 775.7 769.2C775.2 769 774.8 768.6 774.7 768.1L771.1 750.8C770.9 750 771.5 749.2 772.3 749C773.1 748.8 773.9 749.4 774.1 750.2L777.1 764.9L798.4 745.6C799 745 799.9 745 800.5 745.5C801.1 746.1 801.1 747 800.6 747.6C800.5 747.7 800.5 747.7 800.4 747.8L777.1 768.8C776.9 769.1 776.6 769.3 776.2 769.3Z" fill="black"/>
<path d="M800.2 669.4L805.1 688.8L823.5 665.5" fill="#00A3FF"/>
<path d="M805.1 690.3C805 690.3 804.9 690.3 804.8 690.3C804.2 690.2 803.8 689.8 803.7 689.2L798.8 669.8C798.5 669 799 668.2 799.8 667.9C800.6 667.6 801.4 668.1 801.7 668.9C801.7 669 801.7 669 801.8 669.1L806 685.6L822.5 664.7C823 664 823.9 663.9 824.6 664.4C825.3 664.9 825.4 665.8 824.9 666.5L824.8 666.6L806.4 689.9C806 690.1 805.6 690.3 805.1 690.3Z" fill="black"/>
<path d="M914.8 634.3C914.8 634.3 860.2 570.5 909.3 539.1C958.4 507.7 1000.8 560.4 984.2 610.3C967.6 660.2 922.2 666.7 897.3 679.6" fill="#FFCDB2"/>
<path d="M897.2 681.1C896.4 681.1 895.7 680.4 895.7 679.6C895.7 679 896 678.5 896.5 678.3C901.8 675.5 908 673.1 914.6 670.5C939.2 660.7 969.8 648.6 982.7 609.8C991.4 583.8 984 555.2 964.7 540.2C949 528 929.1 528.1 910 540.3C898.9 547.4 892.4 556.8 890.7 568.3C886.3 598.3 915.6 632.9 915.9 633.3C916.4 633.9 916.4 634.9 915.7 635.4C915.1 635.9 914.1 635.9 913.6 635.2C912.3 633.7 883.1 599.1 887.8 567.8C889.6 555.4 896.6 545.3 908.4 537.7C928.6 524.7 949.8 524.7 966.6 537.7C986.8 553.4 994.6 583.4 985.6 610.6C972.2 650.7 940.9 663.1 915.7 673.1C909.2 675.7 903.1 678.1 897.9 680.8C897.7 681 897.5 681.1 897.2 681.1Z" fill="black"/>
<path d="M896.3 716.6C896.3 716.6 841.8 652.8 890.8 621.4C939.8 590 982.3 642.7 965.7 692.6C949.1 742.5 903.7 749 878.8 761.9" fill="#FFCDB2"/>
<path d="M878.7 763.4C877.9 763.4 877.2 762.7 877.2 761.9C877.2 761.3 877.5 760.8 878 760.6C883.3 757.8 889.5 755.4 896.1 752.8C920.7 743 951.3 730.9 964.2 692.1C972.9 666.1 965.5 637.5 946.2 622.5C930.5 610.3 910.6 610.4 891.5 622.6C880.4 629.7 873.9 639.1 872.2 650.6C867.8 680.5 897.1 715.2 897.4 715.6C898 716.2 897.9 717.2 897.3 717.7C896.7 718.2 895.7 718.2 895.2 717.6C894 716.1 864.7 681.6 869.4 650.3C871.2 637.9 878.2 627.8 890 620.2C910.2 607.2 931.4 607.2 948.2 620.2C968.4 635.9 976.2 665.9 967.2 693.1C953.8 733.2 922.5 745.6 897.3 755.6C890.8 758.2 884.7 760.6 879.5 763.3C879.2 763.4 878.9 763.4 878.7 763.4Z" fill="black"/>
<path d="M869.2 782.3C869.2 782.3 814.6 718.5 863.7 687.1C912.8 655.7 955.2 708.4 938.6 758.3C922 808.2 876.6 814.7 851.7 827.6" fill="#FFCDB2"/>
<path d="M851.7 829.1C850.9 829.1 850.2 828.4 850.2 827.6C850.2 827 850.5 826.5 851 826.3C856.3 823.5 862.5 821.1 869.1 818.5C893.7 808.7 924.3 796.6 937.2 757.8C945.9 731.8 938.5 703.2 919.2 688.2C903.5 676 883.6 676.1 864.5 688.3C853.4 695.4 846.9 704.8 845.2 716.3C840.8 746.3 870.1 780.9 870.4 781.3C871 781.9 870.9 782.9 870.3 783.4C869.7 783.9 868.7 783.9 868.2 783.3C866.9 781.8 837.7 747.2 842.4 715.9C844.2 703.5 851.2 693.4 863 685.8C883.2 672.8 904.4 672.8 921.2 685.8C941.4 701.5 949.2 731.5 940.2 758.7C926.8 798.8 895.5 811.2 870.3 821.2C863.8 823.8 857.7 826.2 852.5 828.9C852.1 829 851.9 829.1 851.7 829.1Z" fill="black"/>
<path d="M734.5 580C734.1 580 733.8 579.9 733.5 579.7C732.9 579.2 732.8 578.2 733.3 577.6L766.3 537.6C766.8 537 767.8 536.9 768.4 537.5C769 538 769.1 538.9 768.6 539.5L735.6 579.5C735.3 579.8 734.9 580 734.5 580Z" fill="white"/>
<path d="M789.5 592C789.2 592 788.9 591.9 788.6 591.7C787.9 591.2 787.8 590.3 788.3 589.6L806.3 564.6C806.8 563.9 807.7 563.8 808.4 564.3C809.1 564.8 809.2 565.7 808.7 566.4L790.7 591.4C790.4 591.8 790 592 789.5 592Z" fill="white"/>
<path d="M971.5 627C971.4 627 971.2 627 971.1 626.9C970.3 626.7 969.9 625.8 970.1 625C976.1 604 973.5 586.7 962.1 573.5C956.9 567.5 950.4 562.8 943 559.8C942.2 559.5 941.8 558.7 942.1 557.9C942.4 557.1 943.2 556.7 944 557C951.8 560.1 958.8 565.1 964.3 571.4C972.6 581 980.9 598.3 973 625.8C972.8 626.6 972.2 627 971.5 627Z" fill="white"/>
<path d="M957.5 690H957.2C956.4 689.9 955.8 689.1 956 688.3C959.2 669.3 955.1 652.6 943.8 638.6C938.8 632.3 932.6 627.1 925.6 623.2C924.9 622.8 924.6 621.9 924.9 621.2C925.3 620.5 926.2 620.2 926.9 620.5C927.3 620.7 966.9 641.3 958.9 688.8C958.9 689.5 958.2 690 957.5 690Z" fill="white"/>
<path d="M928.5 763H928.2C927.4 762.8 926.9 762.1 927 761.2C931 740.6 925.7 723.6 911.3 710.5C904.5 704.5 896.6 699.8 888 696.9C887.2 696.7 886.8 695.8 887 695C887.2 694.2 888.1 693.8 888.9 694C897.9 697.1 906.1 701.9 913.2 708.2C923.8 717.7 935.2 734.7 929.9 761.7C929.8 762.5 929.2 763 928.5 763Z" fill="white"/>
<path d="M853.5 449C853.1 449 816.7 447 776.9 430C753.5 420 733.5 406.8 717.4 390.8C697.3 370.8 683.4 346.2 676 317.9C675.8 317.1 676.2 316.3 677 316C677.8 315.8 678.6 316.2 678.9 317V317.1C695.3 380 741.8 411.7 777.9 427.2C817.3 444 853.2 446 853.5 446C854.3 446 855 446.7 855 447.5C855 448.4 854.3 449 853.5 449Z" fill="black"/>
<path d="M732.9 452.5C724.6 452.4 716.5 450.7 708.9 447.5C692.9 440.9 669.9 424.4 651.1 383.1C650.8 382.3 651.1 381.5 651.9 381.1C652.7 380.7 653.5 381.1 653.9 381.9C672.2 422.1 694.5 438.3 709.9 444.7C726.6 451.6 739.1 449.1 739.2 449.1C740 448.9 740.8 449.4 741 450.3C741.2 451.1 740.7 451.9 739.8 452.1C737.5 452.4 735.2 452.6 732.9 452.5Z" fill="black"/>
<path d="M551.5 758C550.9 758 550.4 757.6 550.1 757.1C533 718 553.2 666.1 554.1 663.9C554.4 663.1 555.3 662.8 556 663.1C556.7 663.4 557.1 664.3 556.8 665C556.6 665.5 536.2 717.9 552.8 755.8C553.1 756.6 552.8 757.5 552 757.8C551.9 758 551.7 758 551.5 758Z" fill="black"/>
<path d="M997.5 485C996.7 485 996 484.3 996 483.5C996 483.3 996 483.1 996.1 483C1006 451.9 1005.1 428 993.4 412C978.3 391.3 949.8 391 949.5 391C948.7 391 948 390.3 948 389.5C948 388.7 948.7 388 949.5 388C950.7 388 979.7 388.3 995.8 410.2C1008.1 427.1 1009.2 451.9 999 483.9C998.7 484.6 998.2 485 997.5 485Z" fill="black"/>
</g>
<defs>
<clipPath id="clip0">
<rect width="1000" height="1000" fill="white"/>
</clipPath>
</defs>
</svg>
