<svg width="32" height="32" viewBox="0 0 32 32" fill="none" xmlns="http://www.w3.org/2000/svg">
<path d="M11.5 2.59808C14.2846 0.990381 17.7154 0.990381 20.5 2.59808L25.3564 5.40192C28.141 7.00962 29.8564 9.98076 29.8564 13.1962V18.8038C29.8564 22.0192 28.141 24.9904 25.3564 26.5981L20.5 29.4019C17.7154 31.0096 14.2846 31.0096 11.5 29.4019L6.64359 26.5981C3.85898 24.9904 2.14359 22.0192 2.14359 18.8038V13.1962C2.14359 9.98076 3.85898 7.00962 6.64359 5.40192L11.5 2.59808Z" fill="#00A3FF"/>
<path d="M17.4268 21.2789C18.3076 21.1521 19.1402 20.8073 19.8503 20.2789C20.0501 20.1303 20.0665 19.8436 19.9015 19.6571V19.6571C19.7365 19.4706 19.4528 19.4553 19.2505 19.6005C18.6741 20.0141 18.0049 20.2847 17.2983 20.3864C16.4425 20.5097 15.5693 20.3798 14.7863 20.013C14.0034 19.6461 13.3448 19.0582 12.8919 18.3217C12.4389 17.5852 12.2112 16.7323 12.237 15.8681C12.2627 15.0038 12.5407 14.1659 13.0367 13.4577C13.5328 12.7495 14.2251 12.2018 15.0285 11.8822C15.8319 11.5626 16.7113 11.485 17.5582 11.659C18.2575 11.8026 18.9095 12.1125 19.4602 12.5597C19.6535 12.7167 19.9377 12.7183 20.1135 12.5419V12.5419C20.2892 12.3656 20.2899 12.0784 20.0993 11.9182C19.4219 11.3485 18.6113 10.9547 17.7397 10.7757C16.7204 10.5664 15.6621 10.6598 14.6952 11.0444C13.7284 11.4291 12.8951 12.0881 12.2982 12.9405C11.7013 13.7928 11.3667 14.8011 11.3357 15.8412C11.3047 16.8813 11.5787 17.9078 12.1238 18.7941C12.669 19.6804 13.4615 20.3879 14.4038 20.8295C15.346 21.271 16.3968 21.4272 17.4268 21.2789Z" stroke="white" stroke-width="2"/>
</svg>
