<svg width="89" height="32" viewBox="0 0 89 32" fill="none" xmlns="http://www.w3.org/2000/svg">
<path d="M46.064 25.154C44.392 25.154 42.94 24.78 41.708 24.032C40.4907 23.284 39.5593 22.2867 38.914 21.04C38.2687 19.7787 37.946 18.3927 37.946 16.882C37.946 15.2833 38.2907 13.8533 38.98 12.592C39.684 11.3307 40.6667 10.348 41.928 9.644C43.1893 8.92533 44.6193 8.566 46.218 8.566C46.9367 8.566 47.604 8.64667 48.22 8.808C48.8507 8.95467 49.3713 9.13067 49.782 9.336C50.1927 9.52667 50.464 9.688 50.596 9.82L49.518 12.02C48.6233 11.228 47.4573 10.832 46.02 10.832C45.008 10.832 44.0913 11.0813 43.27 11.58C42.4487 12.0787 41.8033 12.79 41.334 13.714C40.8647 14.638 40.63 15.7087 40.63 16.926C40.63 18.0407 40.8353 19.0527 41.246 19.962C41.6713 20.8713 42.2873 21.59 43.094 22.118C43.9007 22.646 44.8613 22.91 45.976 22.91C47.2667 22.91 48.5133 22.5433 49.716 21.81L50.442 23.9C50.1193 24.1933 49.5253 24.4793 48.66 24.758C47.8093 25.022 46.944 25.154 46.064 25.154ZM52.7831 14.902H55.1591V16.882C55.3938 16.2073 55.7751 15.6647 56.3031 15.254C56.8311 14.8433 57.4324 14.638 58.1071 14.638C58.5764 14.638 58.8991 14.682 59.0751 14.77L58.7451 17.168C58.6131 17.08 58.3271 17.036 57.8871 17.036C57.1978 17.036 56.5671 17.256 55.9951 17.696C55.4378 18.136 55.1591 18.84 55.1591 19.808V25H52.7831V14.902ZM65.2214 25.22C64.312 25.22 63.4687 25.0073 62.6914 24.582C61.9287 24.142 61.3127 23.526 60.8434 22.734C60.3887 21.9273 60.1614 20.9887 60.1614 19.918C60.1614 18.862 60.3594 17.938 60.7554 17.146C61.166 16.354 61.7454 15.738 62.4934 15.298C63.2414 14.858 64.1214 14.638 65.1334 14.638C65.72 14.638 66.27 14.7407 66.7834 14.946C67.2967 15.1513 67.7294 15.408 68.0814 15.716C68.4334 16.0093 68.668 16.3027 68.7854 16.596L68.8294 14.902H71.0954V25H68.8514L68.8074 23.218C68.558 23.746 68.1034 24.2153 67.4434 24.626C66.7834 25.022 66.0427 25.22 65.2214 25.22ZM65.6174 23.24C66.4534 23.24 67.1574 22.954 67.7294 22.382C68.3014 21.7953 68.5874 21.0327 68.5874 20.094V19.94C68.5874 19.3093 68.4554 18.7447 68.1914 18.246C67.9274 17.7473 67.568 17.3587 67.1134 17.08C66.6587 16.8013 66.16 16.662 65.6174 16.662C64.6787 16.662 63.9527 16.97 63.4394 17.586C62.926 18.1873 62.6694 18.972 62.6694 19.94C62.6694 20.9227 62.9187 21.722 63.4174 22.338C63.9307 22.9393 64.664 23.24 65.6174 23.24ZM75.2365 16.794H73.6085V14.902H75.2365V12.724C75.2365 11.404 75.5518 10.3847 76.1825 9.666C76.8278 8.93267 77.7665 8.566 78.9985 8.566C79.4972 8.566 80.0618 8.70533 80.6925 8.984L80.2305 11.228C80.1278 11.1107 79.9665 11.0007 79.7465 10.898C79.5412 10.7807 79.3138 10.722 79.0645 10.722C78.0818 10.722 77.5832 11.36 77.5685 12.636V14.902H79.9445V16.794H77.5685V25H75.2365V16.794ZM83.1412 16.838H81.3592V14.902H83.1412V10.788L85.5392 10.26V14.902H87.8712V16.838H85.5392V25H83.1412V16.838Z" fill="white"/>
<path d="M11.5 2.59808C14.2846 0.990381 17.7154 0.990381 20.5 2.59808L25.3564 5.40192C28.141 7.00962 29.8564 9.98076 29.8564 13.1962V18.8038C29.8564 22.0192 28.141 24.9904 25.3564 26.5981L20.5 29.4019C17.7154 31.0096 14.2846 31.0096 11.5 29.4019L6.64359 26.5981C3.85898 24.9904 2.14359 22.0192 2.14359 18.8038V13.1962C2.14359 9.98076 3.85898 7.00962 6.64359 5.40192L11.5 2.59808Z" fill="#00A3FF"/>
<path d="M17.4265 21.2787C18.3072 21.1519 19.1398 20.8071 19.85 20.2787C20.0497 20.1301 20.0662 19.8435 19.9012 19.657V19.657C19.7362 19.4705 19.4525 19.4551 19.2502 19.6003C18.6738 20.014 18.0045 20.2845 17.298 20.3863C16.4421 20.5095 15.569 20.3797 14.786 20.0128C14.003 19.6459 13.3445 19.058 12.8915 18.3216C12.4385 17.5851 12.2109 16.7322 12.2366 15.8679C12.2624 15.0036 12.5404 14.1658 13.0364 13.4575C13.5324 12.7493 14.2248 12.2017 15.0282 11.8821C15.8316 11.5624 16.711 11.4848 17.5579 11.6588C18.2572 11.8024 18.9092 12.1123 19.4599 12.5596C19.6532 12.7165 19.9374 12.7181 20.1131 12.5417V12.5417C20.2889 12.3654 20.2896 12.0783 20.099 11.918C19.4216 11.3483 18.611 10.9546 17.7393 10.7756C16.72 10.5662 15.6618 10.6596 14.6949 11.0443C13.728 11.4289 12.8948 12.088 12.2979 12.9403C11.7009 13.7926 11.3664 14.8009 11.3354 15.841C11.3044 16.8811 11.5783 17.9076 12.1235 18.7939C12.6686 19.6803 13.4612 20.3878 14.4034 20.8293C15.3457 21.2708 16.3965 21.427 17.4265 21.2787Z" stroke="white" stroke-width="2"/>
</svg>
