<svg width="89" height="32" viewBox="0 0 89 32" fill="none" xmlns="http://www.w3.org/2000/svg">
<path d="M46.064 25.154C44.392 25.154 42.94 24.78 41.708 24.032C40.4907 23.284 39.5593 22.2867 38.914 21.04C38.2687 19.7787 37.946 18.3927 37.946 16.882C37.946 15.2833 38.2907 13.8533 38.98 12.592C39.684 11.3307 40.6667 10.348 41.928 9.644C43.1893 8.92533 44.6193 8.566 46.218 8.566C46.9367 8.566 47.604 8.64667 48.22 8.808C48.8507 8.95467 49.3713 9.13067 49.782 9.336C50.1927 9.52667 50.464 9.688 50.596 9.82L49.518 12.02C48.6233 11.228 47.4573 10.832 46.02 10.832C45.008 10.832 44.0913 11.0813 43.27 11.58C42.4487 12.0787 41.8033 12.79 41.334 13.714C40.8647 14.638 40.63 15.7087 40.63 16.926C40.63 18.0407 40.8353 19.0527 41.246 19.962C41.6713 20.8713 42.2873 21.59 43.094 22.118C43.9007 22.646 44.8613 22.91 45.976 22.91C47.2667 22.91 48.5133 22.5433 49.716 21.81L50.442 23.9C50.1193 24.1933 49.5253 24.4793 48.66 24.758C47.8093 25.022 46.944 25.154 46.064 25.154ZM52.7831 14.902H55.1591V16.882C55.3938 16.2073 55.7751 15.6647 56.3031 15.254C56.8311 14.8433 57.4324 14.638 58.1071 14.638C58.5764 14.638 58.8991 14.682 59.0751 14.77L58.7451 17.168C58.6131 17.08 58.3271 17.036 57.8871 17.036C57.1978 17.036 56.5671 17.256 55.9951 17.696C55.4378 18.136 55.1591 18.84 55.1591 19.808V25H52.7831V14.902ZM65.2214 25.22C64.312 25.22 63.4687 25.0073 62.6914 24.582C61.9287 24.142 61.3127 23.526 60.8434 22.734C60.3887 21.9273 60.1614 20.9887 60.1614 19.918C60.1614 18.862 60.3594 17.938 60.7554 17.146C61.166 16.354 61.7454 15.738 62.4934 15.298C63.2414 14.858 64.1214 14.638 65.1334 14.638C65.72 14.638 66.27 14.7407 66.7834 14.946C67.2967 15.1513 67.7294 15.408 68.0814 15.716C68.4334 16.0093 68.668 16.3027 68.7854 16.596L68.8294 14.902H71.0954V25H68.8514L68.8074 23.218C68.558 23.746 68.1034 24.2153 67.4434 24.626C66.7834 25.022 66.0427 25.22 65.2214 25.22ZM65.6174 23.24C66.4534 23.24 67.1574 22.954 67.7294 22.382C68.3014 21.7953 68.5874 21.0327 68.5874 20.094V19.94C68.5874 19.3093 68.4554 18.7447 68.1914 18.246C67.9274 17.7473 67.568 17.3587 67.1134 17.08C66.6587 16.8013 66.16 16.662 65.6174 16.662C64.6787 16.662 63.9527 16.97 63.4394 17.586C62.926 18.1873 62.6694 18.972 62.6694 19.94C62.6694 20.9227 62.9187 21.722 63.4174 22.338C63.9307 22.9393 64.664 23.24 65.6174 23.24ZM75.2365 16.794H73.6085V14.902H75.2365V12.724C75.2365 11.404 75.5518 10.3847 76.1825 9.666C76.8278 8.93267 77.7665 8.566 78.9985 8.566C79.4972 8.566 80.0618 8.70533 80.6925 8.984L80.2305 11.228C80.1278 11.1107 79.9665 11.0007 79.7465 10.898C79.5412 10.7807 79.3138 10.722 79.0645 10.722C78.0818 10.722 77.5832 11.36 77.5685 12.636V14.902H79.9445V16.794H77.5685V25H75.2365V16.794ZM83.1412 16.838H81.3592V14.902H83.1412V10.788L85.5392 10.26V14.902H87.8712V16.838H85.5392V25H83.1412V16.838Z" fill="#181C32"/>
<path d="M11.5 2.59808C14.2846 0.990381 17.7154 0.990381 20.5 2.59808L25.3564 5.40192C28.141 7.00962 29.8564 9.98076 29.8564 13.1962V18.8038C29.8564 22.0192 28.141 24.9904 25.3564 26.5981L20.5 29.4019C17.7154 31.0096 14.2846 31.0096 11.5 29.4019L6.64359 26.5981C3.85898 24.9904 2.14359 22.0192 2.14359 18.8038V13.1962C2.14359 9.98076 3.85898 7.00962 6.64359 5.40192L11.5 2.59808Z" fill="#00A3FF"/>
<path d="M17.4268 21.2789C18.3076 21.1521 19.1402 20.8073 19.8503 20.2789C20.0501 20.1303 20.0665 19.8436 19.9015 19.6571V19.6571C19.7365 19.4706 19.4528 19.4553 19.2505 19.6005C18.6741 20.0141 18.0049 20.2847 17.2983 20.3864C16.4425 20.5097 15.5693 20.3798 14.7863 20.013C14.0034 19.6461 13.3448 19.0582 12.8919 18.3217C12.4389 17.5852 12.2112 16.7323 12.237 15.8681C12.2627 15.0038 12.5407 14.1659 13.0367 13.4577C13.5328 12.7495 14.2251 12.2018 15.0285 11.8822C15.8319 11.5626 16.7113 11.485 17.5582 11.659C18.2575 11.8026 18.9095 12.1125 19.4602 12.5597C19.6535 12.7167 19.9377 12.7183 20.1135 12.5419V12.5419C20.2892 12.3656 20.2899 12.0784 20.0993 11.9182C19.4219 11.3485 18.6113 10.9547 17.7397 10.7757C16.7204 10.5664 15.6621 10.6598 14.6952 11.0444C13.7284 11.4291 12.8951 12.0881 12.2982 12.9405C11.7013 13.7928 11.3667 14.8011 11.3357 15.8412C11.3047 16.8813 11.5787 17.9078 12.1238 18.7941C12.669 19.6804 13.4615 20.3879 14.4038 20.8295C15.346 21.271 16.3968 21.4272 17.4268 21.2789Z" stroke="white" stroke-width="2"/>
</svg>
