<svg width="52" height="58" viewBox="0 0 52 58" fill="none" xmlns="http://www.w3.org/2000/svg">
<path d="M32.278 51.7652C36.0763 51.2183 39.6669 49.7314 42.7294 47.4528C43.5909 46.8118 43.6617 45.5756 42.9503 44.7713V44.7713C42.2389 43.9671 41.0152 43.9009 40.1429 44.527C37.6571 46.3109 34.7709 47.4777 31.7238 47.9164C28.0331 48.4479 24.2675 47.888 20.891 46.3059C17.5145 44.7238 14.6746 42.1885 12.7211 39.0124C10.7676 35.8363 9.78592 32.1581 9.89694 28.431C10.008 24.7038 11.2069 21.0906 13.3459 18.0364C15.485 14.9822 18.4708 12.6204 21.9355 11.2421C25.4002 9.86375 29.1924 9.52906 32.8449 10.2792C35.8605 10.8986 38.6721 12.2351 41.0473 14.1638C41.8809 14.8406 43.1063 14.8475 43.8643 14.087V14.087C44.6223 13.3265 44.6252 12.0883 43.8034 11.3972C40.882 8.94032 37.3863 7.24232 33.6272 6.47027C29.2315 5.56747 24.6678 5.97026 20.4981 7.62903C16.3285 9.2878 12.7352 12.1301 10.1609 15.8057C7.58664 19.4813 6.14381 23.8297 6.0102 28.3152C5.87659 32.8007 7.05803 37.2272 9.40898 41.0496C11.7599 44.8719 15.1777 47.923 19.2412 49.827C23.3047 51.731 27.8364 52.4048 32.278 51.7652Z" stroke="white" stroke-width="12"/>
<path d="M32.2682 51.7666C36.0701 51.2208 39.6642 49.7334 42.7294 47.4528C43.5909 46.8118 43.6617 45.5756 42.9503 44.7713V44.7713C42.2389 43.9671 41.0152 43.9009 40.1429 44.527C37.6549 46.3125 34.7657 47.4798 31.7157 47.9176C28.0219 48.4479 24.2538 47.8852 20.8761 46.2989C17.4984 44.7127 14.659 42.1724 12.7082 38.9914C11.0973 36.3646 10.1505 33.396 9.93556 30.3411C9.86022 29.27 9.02792 28.3706 7.95468 28.3368V28.3368C6.88144 28.303 5.97541 29.1469 6.03232 30.2192C6.23481 34.0343 7.38543 37.75 9.39341 41.0242C11.7412 44.8525 15.1583 47.9097 19.2232 49.8186C23.2881 51.7276 27.8229 52.4047 32.2682 51.7666Z" stroke="#6C32AD" stroke-width="12"/>
</svg>
