<svg width="48" height="48" viewBox="0 0 48 48" fill="none" xmlns="http://www.w3.org/2000/svg">
<path d="M18 3.4641C21.7128 1.32051 26.2872 1.32051 30 3.4641L38.7846 8.5359C42.4974 10.6795 44.7846 14.641 44.7846 18.9282V29.0718C44.7846 33.359 42.4974 37.3205 38.7846 39.4641L30 44.5359C26.2872 46.6795 21.7128 46.6795 18 44.5359L9.21539 39.4641C5.50258 37.3205 3.21539 33.359 3.21539 29.0718V18.9282C3.21539 14.641 5.50258 10.6795 9.21539 8.5359L18 3.4641Z" fill="#00A3FF"/>
<path d="M26.1402 31.9183C27.4613 31.7281 28.7102 31.2109 29.7754 30.4184C30.0751 30.1954 30.0997 29.7654 29.8523 29.4857V29.4857C29.6048 29.2059 29.1792 29.1829 28.8758 29.4007C28.0112 30.0212 27.0073 30.427 25.9474 30.5796C24.6637 30.7645 23.3539 30.5698 22.1795 30.0195C21.0051 29.4692 20.0173 28.5873 19.3378 27.4826C18.6583 26.3778 18.3168 25.0985 18.3555 23.8021C18.3941 22.5057 18.8111 21.2489 19.5551 20.1866C20.2991 19.1242 21.3377 18.3028 22.5428 17.8233C23.7479 17.3439 25.0669 17.2275 26.3374 17.4884C27.3863 17.7039 28.3642 18.1687 29.1904 18.8396C29.4803 19.075 29.9065 19.0774 30.1702 18.8129V18.8129C30.4338 18.5483 30.4348 18.1177 30.149 17.8773C29.1329 17.0227 27.917 16.4321 26.6095 16.1636C25.0805 15.8496 23.4931 15.9897 22.0428 16.5666C20.5925 17.1436 19.3427 18.1322 18.4473 19.4107C17.5519 20.6892 17.05 22.2016 17.0035 23.7618C16.9571 25.322 17.368 26.8616 18.1857 28.1912C19.0035 29.5207 20.1922 30.5819 21.6056 31.2442C23.019 31.9064 24.5953 32.1408 26.1402 31.9183Z" stroke="white" stroke-width="3"/>
</svg>
